solid OpenSCAD_Model
  facet normal 0.951057 0.309017 0
    outer loop
      vertex 4.20603 0.89402 8
      vertex 3.92824 1.74897 0
      vertex 3.92824 1.74897 8
    endloop
  endfacet
  facet normal 0.951057 0.309017 0
    outer loop
      vertex 3.92824 1.74897 0
      vertex 4.20603 0.89402 8
      vertex 4.20603 0.89402 0
    endloop
  endfacet
  facet normal 0.994521 0.104534 0
    outer loop
      vertex 4.3 0 8
      vertex 4.20603 0.89402 0
      vertex 4.20603 0.89402 8
    endloop
  endfacet
  facet normal 0.994521 0.104534 0
    outer loop
      vertex 4.20603 0.89402 0
      vertex 4.3 0 8
      vertex 4.3 0 0
    endloop
  endfacet
  facet normal 0.866027 0.499998 0
    outer loop
      vertex 3.92824 1.74897 8
      vertex 3.47877 2.52748 0
      vertex 3.47877 2.52748 8
    endloop
  endfacet
  facet normal 0.866027 0.499998 0
    outer loop
      vertex 3.47877 2.52748 0
      vertex 3.92824 1.74897 8
      vertex 3.92824 1.74897 0
    endloop
  endfacet
  facet normal 0.207911 0.978148 -0
    outer loop
      vertex 1.32877 4.08954 0
      vertex 0.449471 4.27644 8
      vertex 1.32877 4.08954 8
    endloop
  endfacet
  facet normal 0.207911 0.978148 0
    outer loop
      vertex 0.449471 4.27644 8
      vertex 1.32877 4.08954 0
      vertex 0.449471 4.27644 0
    endloop
  endfacet
  facet normal 0.994521 -0.104534 0
    outer loop
      vertex 4.20603 -0.89402 8
      vertex 4.3 0 0
      vertex 4.3 0 8
    endloop
  endfacet
  facet normal 0.994521 -0.104534 0
    outer loop
      vertex 4.3 0 0
      vertex 4.20603 -0.89402 8
      vertex 4.20603 -0.89402 0
    endloop
  endfacet
  facet normal -0.994521 0.104534 0
    outer loop
      vertex -4.3 0 0
      vertex -4.20603 0.89402 8
      vertex -4.20603 0.89402 0
    endloop
  endfacet
  facet normal -0.994521 0.104534 0
    outer loop
      vertex -4.20603 0.89402 8
      vertex -4.3 0 0
      vertex -4.3 0 8
    endloop
  endfacet
  facet normal -0.587789 -0.809015 0
    outer loop
      vertex -2.87726 -3.19552 0
      vertex -2.15 -3.72391 8
      vertex -2.87726 -3.19552 8
    endloop
  endfacet
  facet normal -0.587789 -0.809015 -0
    outer loop
      vertex -2.15 -3.72391 8
      vertex -2.87726 -3.19552 0
      vertex -2.15 -3.72391 0
    endloop
  endfacet
  facet normal 0.743143 0.669133 0
    outer loop
      vertex 3.47877 2.52748 8
      vertex 2.87726 3.19552 0
      vertex 2.87726 3.19552 8
    endloop
  endfacet
  facet normal 0.743143 0.669133 0
    outer loop
      vertex 2.87726 3.19552 0
      vertex 3.47877 2.52748 8
      vertex 3.47877 2.52748 0
    endloop
  endfacet
  facet normal 0.207911 -0.978148 0
    outer loop
      vertex 0.449471 -4.27644 0
      vertex 1.32877 -4.08954 8
      vertex 0.449471 -4.27644 8
    endloop
  endfacet
  facet normal 0.207911 -0.978148 0
    outer loop
      vertex 1.32877 -4.08954 8
      vertex 0.449471 -4.27644 0
      vertex 1.32877 -4.08954 0
    endloop
  endfacet
  facet normal 0.587789 -0.809015 0
    outer loop
      vertex 2.15 -3.72391 0
      vertex 2.87726 -3.19552 8
      vertex 2.15 -3.72391 8
    endloop
  endfacet
  facet normal 0.587789 -0.809015 0
    outer loop
      vertex 2.87726 -3.19552 8
      vertex 2.15 -3.72391 0
      vertex 2.87726 -3.19552 0
    endloop
  endfacet
  facet normal 0.406732 0.913548 -0
    outer loop
      vertex 2.15 3.72391 0
      vertex 1.32877 4.08954 8
      vertex 2.15 3.72391 8
    endloop
  endfacet
  facet normal 0.406732 0.913548 0
    outer loop
      vertex 1.32877 4.08954 8
      vertex 2.15 3.72391 0
      vertex 1.32877 4.08954 0
    endloop
  endfacet
  facet normal -0.207911 -0.978148 0
    outer loop
      vertex -1.32877 -4.08954 0
      vertex -0.449471 -4.27644 8
      vertex -1.32877 -4.08954 8
    endloop
  endfacet
  facet normal -0.207911 -0.978148 -0
    outer loop
      vertex -0.449471 -4.27644 8
      vertex -1.32877 -4.08954 0
      vertex -0.449471 -4.27644 0
    endloop
  endfacet
  facet normal 0.587789 0.809015 -0
    outer loop
      vertex 2.87726 3.19552 0
      vertex 2.15 3.72391 8
      vertex 2.87726 3.19552 8
    endloop
  endfacet
  facet normal 0.587789 0.809015 0
    outer loop
      vertex 2.15 3.72391 8
      vertex 2.87726 3.19552 0
      vertex 2.15 3.72391 0
    endloop
  endfacet
  facet normal -0.866027 -0.499998 0
    outer loop
      vertex -3.47877 -2.52748 0
      vertex -3.92824 -1.74897 8
      vertex -3.92824 -1.74897 0
    endloop
  endfacet
  facet normal -0.866027 -0.499998 0
    outer loop
      vertex -3.92824 -1.74897 8
      vertex -3.47877 -2.52748 0
      vertex -3.47877 -2.52748 8
    endloop
  endfacet
  facet normal -0.406732 -0.913548 0
    outer loop
      vertex -2.15 -3.72391 0
      vertex -1.32877 -4.08954 8
      vertex -2.15 -3.72391 8
    endloop
  endfacet
  facet normal -0.406732 -0.913548 -0
    outer loop
      vertex -1.32877 -4.08954 8
      vertex -2.15 -3.72391 0
      vertex -1.32877 -4.08954 0
    endloop
  endfacet
  facet normal -0.866027 0.499998 0
    outer loop
      vertex -3.92824 1.74897 0
      vertex -3.47877 2.52748 8
      vertex -3.47877 2.52748 0
    endloop
  endfacet
  facet normal -0.866027 0.499998 0
    outer loop
      vertex -3.47877 2.52748 8
      vertex -3.92824 1.74897 0
      vertex -3.92824 1.74897 8
    endloop
  endfacet
  facet normal -0.743143 0.669133 0
    outer loop
      vertex -3.47877 2.52748 0
      vertex -2.87726 3.19552 8
      vertex -2.87726 3.19552 0
    endloop
  endfacet
  facet normal -0.743143 0.669133 0
    outer loop
      vertex -2.87726 3.19552 8
      vertex -3.47877 2.52748 0
      vertex -3.47877 2.52748 8
    endloop
  endfacet
  facet normal -0.207911 0.978148 0
    outer loop
      vertex -0.449471 4.27644 0
      vertex -1.32877 4.08954 8
      vertex -0.449471 4.27644 8
    endloop
  endfacet
  facet normal -0.207911 0.978148 0
    outer loop
      vertex -1.32877 4.08954 8
      vertex -0.449471 4.27644 0
      vertex -1.32877 4.08954 0
    endloop
  endfacet
  facet normal 0.951057 -0.309017 0
    outer loop
      vertex 3.92824 -1.74897 8
      vertex 4.20603 -0.89402 0
      vertex 4.20603 -0.89402 8
    endloop
  endfacet
  facet normal 0.951057 -0.309017 0
    outer loop
      vertex 4.20603 -0.89402 0
      vertex 3.92824 -1.74897 8
      vertex 3.92824 -1.74897 0
    endloop
  endfacet
  facet normal -0.587789 0.809015 0
    outer loop
      vertex -2.15 3.72391 0
      vertex -2.87726 3.19552 8
      vertex -2.15 3.72391 8
    endloop
  endfacet
  facet normal -0.587789 0.809015 0
    outer loop
      vertex -2.87726 3.19552 8
      vertex -2.15 3.72391 0
      vertex -2.87726 3.19552 0
    endloop
  endfacet
  facet normal 0 1 -0
    outer loop
      vertex 0.449471 4.27644 0
      vertex -0.449471 4.27644 8
      vertex 0.449471 4.27644 8
    endloop
  endfacet
  facet normal 0 1 0
    outer loop
      vertex -0.449471 4.27644 8
      vertex 0.449471 4.27644 0
      vertex -0.449471 4.27644 0
    endloop
  endfacet
  facet normal -0.406732 0.913548 0
    outer loop
      vertex -1.32877 4.08954 0
      vertex -2.15 3.72391 8
      vertex -1.32877 4.08954 8
    endloop
  endfacet
  facet normal -0.406732 0.913548 0
    outer loop
      vertex -2.15 3.72391 8
      vertex -1.32877 4.08954 0
      vertex -2.15 3.72391 0
    endloop
  endfacet
  facet normal 0.866027 -0.499998 0
    outer loop
      vertex 3.47877 -2.52748 8
      vertex 3.92824 -1.74897 0
      vertex 3.92824 -1.74897 8
    endloop
  endfacet
  facet normal 0.866027 -0.499998 0
    outer loop
      vertex 3.92824 -1.74897 0
      vertex 3.47877 -2.52748 8
      vertex 3.47877 -2.52748 0
    endloop
  endfacet
  facet normal 0.406732 -0.913548 0
    outer loop
      vertex 1.32877 -4.08954 0
      vertex 2.15 -3.72391 8
      vertex 1.32877 -4.08954 8
    endloop
  endfacet
  facet normal 0.406732 -0.913548 0
    outer loop
      vertex 2.15 -3.72391 8
      vertex 1.32877 -4.08954 0
      vertex 2.15 -3.72391 0
    endloop
  endfacet
  facet normal -0.951057 0.309017 0
    outer loop
      vertex -4.20603 0.89402 0
      vertex -3.92824 1.74897 8
      vertex -3.92824 1.74897 0
    endloop
  endfacet
  facet normal -0.951057 0.309017 0
    outer loop
      vertex -3.92824 1.74897 8
      vertex -4.20603 0.89402 0
      vertex -4.20603 0.89402 8
    endloop
  endfacet
  facet normal 0.743143 -0.669133 0
    outer loop
      vertex 2.87726 -3.19552 8
      vertex 3.47877 -2.52748 0
      vertex 3.47877 -2.52748 8
    endloop
  endfacet
  facet normal 0.743143 -0.669133 0
    outer loop
      vertex 3.47877 -2.52748 0
      vertex 2.87726 -3.19552 8
      vertex 2.87726 -3.19552 0
    endloop
  endfacet
  facet normal 0 0 1
    outer loop
      vertex 1 0 8
      vertex 4.3 0 8
      vertex 4.20603 0.89402 8
    endloop
  endfacet
  facet normal 0 0 1
    outer loop
      vertex 0.978148 0.207911 8
      vertex 4.20603 0.89402 8
      vertex 3.92824 1.74897 8
    endloop
  endfacet
  facet normal 0 0 1
    outer loop
      vertex 4.3 0 8
      vertex 1 0 8
      vertex 4.20603 -0.89402 8
    endloop
  endfacet
  facet normal 0 0 1
    outer loop
      vertex 0.913545 0.406736 8
      vertex 3.92824 1.74897 8
      vertex 3.47877 2.52748 8
    endloop
  endfacet
  facet normal -0 0 1
    outer loop
      vertex 0.978148 -0.207911 8
      vertex 4.20603 -0.89402 8
      vertex 1 0 8
    endloop
  endfacet
  facet normal 0 0 1
    outer loop
      vertex 0.809016 0.587785 8
      vertex 3.47877 2.52748 8
      vertex 2.87726 3.19552 8
    endloop
  endfacet
  facet normal 0 0 1
    outer loop
      vertex 4.20603 -0.89402 8
      vertex 0.978148 -0.207911 8
      vertex 3.92824 -1.74897 8
    endloop
  endfacet
  facet normal 0 0 1
    outer loop
      vertex 0.66913 0.743144 8
      vertex 2.87726 3.19552 8
      vertex 2.15 3.72391 8
    endloop
  endfacet
  facet normal -0 0 1
    outer loop
      vertex 0.913545 -0.406736 8
      vertex 3.92824 -1.74897 8
      vertex 0.978148 -0.207911 8
    endloop
  endfacet
  facet normal 0 0 1
    outer loop
      vertex 0.5 0.866025 8
      vertex 2.15 3.72391 8
      vertex 1.32877 4.08954 8
    endloop
  endfacet
  facet normal 0 0 1
    outer loop
      vertex 3.92824 -1.74897 8
      vertex 0.913545 -0.406736 8
      vertex 3.47877 -2.52748 8
    endloop
  endfacet
  facet normal -0 0 1
    outer loop
      vertex 0.809016 -0.587785 8
      vertex 3.47877 -2.52748 8
      vertex 0.913545 -0.406736 8
    endloop
  endfacet
  facet normal 0 0 1
    outer loop
      vertex 4.20603 0.89402 8
      vertex 0.978148 0.207911 8
      vertex 1 0 8
    endloop
  endfacet
  facet normal 0 0 1
    outer loop
      vertex 3.92824 1.74897 8
      vertex 0.913545 0.406736 8
      vertex 0.978148 0.207911 8
    endloop
  endfacet
  facet normal 0 0 1
    outer loop
      vertex 3.47877 2.52748 8
      vertex 0.809016 0.587785 8
      vertex 0.913545 0.406736 8
    endloop
  endfacet
  facet normal 0 0 1
    outer loop
      vertex 2.87726 3.19552 8
      vertex 0.66913 0.743144 8
      vertex 0.809016 0.587785 8
    endloop
  endfacet
  facet normal 0 0 1
    outer loop
      vertex 2.15 3.72391 8
      vertex 0.5 0.866025 8
      vertex 0.66913 0.743144 8
    endloop
  endfacet
  facet normal 0 0 1
    outer loop
      vertex 0.309016 0.951056 8
      vertex 1.32877 4.08954 8
      vertex 0.449471 4.27644 8
    endloop
  endfacet
  facet normal 0 0 1
    outer loop
      vertex 1.32877 4.08954 8
      vertex 0.309016 0.951056 8
      vertex 0.5 0.866025 8
    endloop
  endfacet
  facet normal 0 0 1
    outer loop
      vertex 0.449471 4.27644 8
      vertex 0.104528 0.994521 8
      vertex 0.309016 0.951056 8
    endloop
  endfacet
  facet normal 0 0 1
    outer loop
      vertex 0.449471 4.27644 8
      vertex -0.104528 0.994521 8
      vertex 0.104528 0.994521 8
    endloop
  endfacet
  facet normal -0 0 1
    outer loop
      vertex -0.449471 4.27644 8
      vertex -0.104528 0.994521 8
      vertex 0.449471 4.27644 8
    endloop
  endfacet
  facet normal 0 0 1
    outer loop
      vertex -0.104528 0.994521 8
      vertex -0.449471 4.27644 8
      vertex -0.309016 0.951056 8
    endloop
  endfacet
  facet normal -0 0 1
    outer loop
      vertex -1.32877 4.08954 8
      vertex -0.309016 0.951056 8
      vertex -0.449471 4.27644 8
    endloop
  endfacet
  facet normal 0 0 1
    outer loop
      vertex -0.309016 0.951056 8
      vertex -1.32877 4.08954 8
      vertex -0.5 0.866025 8
    endloop
  endfacet
  facet normal -0 0 1
    outer loop
      vertex -2.15 3.72391 8
      vertex -0.5 0.866025 8
      vertex -1.32877 4.08954 8
    endloop
  endfacet
  facet normal 0 0 1
    outer loop
      vertex -0.5 0.866025 8
      vertex -2.15 3.72391 8
      vertex -0.66913 0.743144 8
    endloop
  endfacet
  facet normal -0 0 1
    outer loop
      vertex -2.87726 3.19552 8
      vertex -0.66913 0.743144 8
      vertex -2.15 3.72391 8
    endloop
  endfacet
  facet normal -0 0 1
    outer loop
      vertex -3.47877 2.52748 8
      vertex -0.809016 0.587785 8
      vertex -2.87726 3.19552 8
    endloop
  endfacet
  facet normal 0 0 1
    outer loop
      vertex -0.66913 0.743144 8
      vertex -2.87726 3.19552 8
      vertex -0.809016 0.587785 8
    endloop
  endfacet
  facet normal 0 0 1
    outer loop
      vertex 3.47877 -2.52748 8
      vertex 0.809016 -0.587785 8
      vertex 2.87726 -3.19552 8
    endloop
  endfacet
  facet normal -0 0 1
    outer loop
      vertex 0.66913 -0.743144 8
      vertex 2.87726 -3.19552 8
      vertex 0.809016 -0.587785 8
    endloop
  endfacet
  facet normal 0 0 1
    outer loop
      vertex 2.87726 -3.19552 8
      vertex 0.66913 -0.743144 8
      vertex 2.15 -3.72391 8
    endloop
  endfacet
  facet normal -0 0 1
    outer loop
      vertex 0.5 -0.866025 8
      vertex 2.15 -3.72391 8
      vertex 0.66913 -0.743144 8
    endloop
  endfacet
  facet normal 0 0 1
    outer loop
      vertex 2.15 -3.72391 8
      vertex 0.5 -0.866025 8
      vertex 1.32877 -4.08954 8
    endloop
  endfacet
  facet normal -0 0 1
    outer loop
      vertex 0.309016 -0.951056 8
      vertex 1.32877 -4.08954 8
      vertex 0.5 -0.866025 8
    endloop
  endfacet
  facet normal 0 0 1
    outer loop
      vertex 1.32877 -4.08954 8
      vertex 0.309016 -0.951056 8
      vertex 0.449471 -4.27644 8
    endloop
  endfacet
  facet normal -0 0 1
    outer loop
      vertex 0.104528 -0.994521 8
      vertex 0.449471 -4.27644 8
      vertex 0.309016 -0.951056 8
    endloop
  endfacet
  facet normal -0 0 1
    outer loop
      vertex -0.104528 -0.994521 8
      vertex 0.449471 -4.27644 8
      vertex 0.104528 -0.994521 8
    endloop
  endfacet
  facet normal 0 0 1
    outer loop
      vertex -0.449471 -4.27644 8
      vertex -0.104528 -0.994521 8
      vertex -0.309016 -0.951056 8
    endloop
  endfacet
  facet normal 0 0 1
    outer loop
      vertex -0.104528 -0.994521 8
      vertex -0.449471 -4.27644 8
      vertex 0.449471 -4.27644 8
    endloop
  endfacet
  facet normal 0 0 1
    outer loop
      vertex -1.32877 -4.08954 8
      vertex -0.309016 -0.951056 8
      vertex -0.5 -0.866025 8
    endloop
  endfacet
  facet normal 0 0 1
    outer loop
      vertex -2.15 -3.72391 8
      vertex -0.5 -0.866025 8
      vertex -0.66913 -0.743144 8
    endloop
  endfacet
  facet normal 0 0 1
    outer loop
      vertex -2.87726 -3.19552 8
      vertex -0.66913 -0.743144 8
      vertex -0.809016 -0.587785 8
    endloop
  endfacet
  facet normal 0 0 1
    outer loop
      vertex -3.47877 -2.52748 8
      vertex -0.809016 -0.587785 8
      vertex -0.913545 -0.406736 8
    endloop
  endfacet
  facet normal 0 0 1
    outer loop
      vertex -3.92824 -1.74897 8
      vertex -0.913545 -0.406736 8
      vertex -0.978148 -0.207911 8
    endloop
  endfacet
  facet normal 0 0 1
    outer loop
      vertex -0.309016 -0.951056 8
      vertex -1.32877 -4.08954 8
      vertex -0.449471 -4.27644 8
    endloop
  endfacet
  facet normal 0 0 1
    outer loop
      vertex -4.20603 -0.89402 8
      vertex -0.978148 -0.207911 8
      vertex -1 0 8
    endloop
  endfacet
  facet normal 0 0 1
    outer loop
      vertex -0.809016 0.587785 8
      vertex -3.47877 2.52748 8
      vertex -0.913545 0.406736 8
    endloop
  endfacet
  facet normal -0 0 1
    outer loop
      vertex -3.92824 1.74897 8
      vertex -0.913545 0.406736 8
      vertex -3.47877 2.52748 8
    endloop
  endfacet
  facet normal 0 0 1
    outer loop
      vertex -0.5 -0.866025 8
      vertex -2.15 -3.72391 8
      vertex -1.32877 -4.08954 8
    endloop
  endfacet
  facet normal 0 0 1
    outer loop
      vertex -0.913545 0.406736 8
      vertex -3.92824 1.74897 8
      vertex -0.978148 0.207911 8
    endloop
  endfacet
  facet normal 0 0 1
    outer loop
      vertex -0.66913 -0.743144 8
      vertex -2.87726 -3.19552 8
      vertex -2.15 -3.72391 8
    endloop
  endfacet
  facet normal -0 0 1
    outer loop
      vertex -4.20603 0.89402 8
      vertex -0.978148 0.207911 8
      vertex -3.92824 1.74897 8
    endloop
  endfacet
  facet normal 0 0 1
    outer loop
      vertex -0.809016 -0.587785 8
      vertex -3.47877 -2.52748 8
      vertex -2.87726 -3.19552 8
    endloop
  endfacet
  facet normal 0 0 1
    outer loop
      vertex -0.978148 0.207911 8
      vertex -4.20603 0.89402 8
      vertex -1 0 8
    endloop
  endfacet
  facet normal 0 0 1
    outer loop
      vertex -0.913545 -0.406736 8
      vertex -3.92824 -1.74897 8
      vertex -3.47877 -2.52748 8
    endloop
  endfacet
  facet normal 0 0 1
    outer loop
      vertex -4.3 0 8
      vertex -1 0 8
      vertex -4.20603 0.89402 8
    endloop
  endfacet
  facet normal 0 0 1
    outer loop
      vertex -0.978148 -0.207911 8
      vertex -4.20603 -0.89402 8
      vertex -3.92824 -1.74897 8
    endloop
  endfacet
  facet normal 0 0 1
    outer loop
      vertex -1 0 8
      vertex -4.3 0 8
      vertex -4.20603 -0.89402 8
    endloop
  endfacet
  facet normal 0 -1 0
    outer loop
      vertex -0.449471 -4.27644 0
      vertex 0.449471 -4.27644 8
      vertex -0.449471 -4.27644 8
    endloop
  endfacet
  facet normal 0 -1 -0
    outer loop
      vertex 0.449471 -4.27644 8
      vertex -0.449471 -4.27644 0
      vertex 0.449471 -4.27644 0
    endloop
  endfacet
  facet normal -0.951057 -0.309017 0
    outer loop
      vertex -3.92824 -1.74897 0
      vertex -4.20603 -0.89402 8
      vertex -4.20603 -0.89402 0
    endloop
  endfacet
  facet normal -0.951057 -0.309017 0
    outer loop
      vertex -4.20603 -0.89402 8
      vertex -3.92824 -1.74897 0
      vertex -3.92824 -1.74897 8
    endloop
  endfacet
  facet normal -0.743143 -0.669133 0
    outer loop
      vertex -2.87726 -3.19552 0
      vertex -3.47877 -2.52748 8
      vertex -3.47877 -2.52748 0
    endloop
  endfacet
  facet normal -0.743143 -0.669133 0
    outer loop
      vertex -3.47877 -2.52748 8
      vertex -2.87726 -3.19552 0
      vertex -2.87726 -3.19552 8
    endloop
  endfacet
  facet normal 0 0 -1
    outer loop
      vertex 4.20603 -0.89402 0
      vertex 4.20603 0.89402 0
      vertex 4.3 0 0
    endloop
  endfacet
  facet normal 0 0 -1
    outer loop
      vertex 3.92824 -1.74897 0
      vertex 4.20603 0.89402 0
      vertex 4.20603 -0.89402 0
    endloop
  endfacet
  facet normal 0 0 -1
    outer loop
      vertex 3.92824 -1.74897 0
      vertex 3.92824 1.74897 0
      vertex 4.20603 0.89402 0
    endloop
  endfacet
  facet normal 0 0 -1
    outer loop
      vertex 3.47877 -2.52748 0
      vertex 3.92824 1.74897 0
      vertex 3.92824 -1.74897 0
    endloop
  endfacet
  facet normal 0 0 -1
    outer loop
      vertex 3.47877 -2.52748 0
      vertex 3.47877 2.52748 0
      vertex 3.92824 1.74897 0
    endloop
  endfacet
  facet normal 0 0 -1
    outer loop
      vertex 2.87726 -3.19552 0
      vertex 3.47877 2.52748 0
      vertex 3.47877 -2.52748 0
    endloop
  endfacet
  facet normal 0 0 -1
    outer loop
      vertex 2.87726 -3.19552 0
      vertex 2.87726 3.19552 0
      vertex 3.47877 2.52748 0
    endloop
  endfacet
  facet normal 0 0 -1
    outer loop
      vertex 2.15 -3.72391 0
      vertex 2.87726 3.19552 0
      vertex 2.87726 -3.19552 0
    endloop
  endfacet
  facet normal 0 0 -1
    outer loop
      vertex 2.15 -3.72391 0
      vertex 2.15 3.72391 0
      vertex 2.87726 3.19552 0
    endloop
  endfacet
  facet normal 0 0 -1
    outer loop
      vertex 1.32877 -4.08954 0
      vertex 2.15 3.72391 0
      vertex 2.15 -3.72391 0
    endloop
  endfacet
  facet normal 0 0 -1
    outer loop
      vertex 1.32877 -4.08954 0
      vertex 1.32877 4.08954 0
      vertex 2.15 3.72391 0
    endloop
  endfacet
  facet normal 0 0 -1
    outer loop
      vertex 0.449471 -4.27644 0
      vertex 1.32877 4.08954 0
      vertex 1.32877 -4.08954 0
    endloop
  endfacet
  facet normal 0 0 -1
    outer loop
      vertex 0.449471 -4.27644 0
      vertex 0.449471 4.27644 0
      vertex 1.32877 4.08954 0
    endloop
  endfacet
  facet normal 0 0 -1
    outer loop
      vertex -0.449471 -4.27644 0
      vertex 0.449471 4.27644 0
      vertex 0.449471 -4.27644 0
    endloop
  endfacet
  facet normal 0 0 -1
    outer loop
      vertex -0.449471 -4.27644 0
      vertex -0.449471 4.27644 0
      vertex 0.449471 4.27644 0
    endloop
  endfacet
  facet normal 0 0 -1
    outer loop
      vertex -1.32877 -4.08954 0
      vertex -0.449471 4.27644 0
      vertex -0.449471 -4.27644 0
    endloop
  endfacet
  facet normal 0 0 -1
    outer loop
      vertex -1.32877 -4.08954 0
      vertex -1.32877 4.08954 0
      vertex -0.449471 4.27644 0
    endloop
  endfacet
  facet normal 0 0 -1
    outer loop
      vertex -2.15 -3.72391 0
      vertex -1.32877 4.08954 0
      vertex -1.32877 -4.08954 0
    endloop
  endfacet
  facet normal 0 0 -1
    outer loop
      vertex -2.15 -3.72391 0
      vertex -2.15 3.72391 0
      vertex -1.32877 4.08954 0
    endloop
  endfacet
  facet normal 0 0 -1
    outer loop
      vertex -2.87726 -3.19552 0
      vertex -2.15 3.72391 0
      vertex -2.15 -3.72391 0
    endloop
  endfacet
  facet normal 0 0 -1
    outer loop
      vertex -2.87726 -3.19552 0
      vertex -2.87726 3.19552 0
      vertex -2.15 3.72391 0
    endloop
  endfacet
  facet normal 0 0 -1
    outer loop
      vertex -3.47877 -2.52748 0
      vertex -2.87726 3.19552 0
      vertex -2.87726 -3.19552 0
    endloop
  endfacet
  facet normal 0 0 -1
    outer loop
      vertex -3.47877 -2.52748 0
      vertex -3.47877 2.52748 0
      vertex -2.87726 3.19552 0
    endloop
  endfacet
  facet normal 0 0 -1
    outer loop
      vertex -3.92824 -1.74897 0
      vertex -3.47877 2.52748 0
      vertex -3.47877 -2.52748 0
    endloop
  endfacet
  facet normal 0 0 -1
    outer loop
      vertex -3.92824 -1.74897 0
      vertex -3.92824 1.74897 0
      vertex -3.47877 2.52748 0
    endloop
  endfacet
  facet normal 0 0 -1
    outer loop
      vertex -4.20603 -0.89402 0
      vertex -3.92824 1.74897 0
      vertex -3.92824 -1.74897 0
    endloop
  endfacet
  facet normal 0 0 -1
    outer loop
      vertex -4.20603 -0.89402 0
      vertex -4.20603 0.89402 0
      vertex -3.92824 1.74897 0
    endloop
  endfacet
  facet normal 0 -0 -1
    outer loop
      vertex -4.20603 0.89402 0
      vertex -4.20603 -0.89402 0
      vertex -4.3 0 0
    endloop
  endfacet
  facet normal -0.994521 -0.104534 0
    outer loop
      vertex -4.20603 -0.89402 0
      vertex -4.3 0 8
      vertex -4.3 0 0
    endloop
  endfacet
  facet normal -0.994521 -0.104534 0
    outer loop
      vertex -4.3 0 8
      vertex -4.20603 -0.89402 0
      vertex -4.20603 -0.89402 8
    endloop
  endfacet
  facet normal 0.951055 0.309021 0
    outer loop
      vertex 0.978148 0.207911 13
      vertex 0.913545 0.406736 8
      vertex 0.913545 0.406736 13
    endloop
  endfacet
  facet normal 0.951055 0.309021 0
    outer loop
      vertex 0.913545 0.406736 8
      vertex 0.978148 0.207911 13
      vertex 0.978148 0.207911 8
    endloop
  endfacet
  facet normal 0.994522 0.104527 0
    outer loop
      vertex 1 0 13
      vertex 0.978148 0.207911 8
      vertex 0.978148 0.207911 13
    endloop
  endfacet
  facet normal 0.994522 0.104527 0
    outer loop
      vertex 0.978148 0.207911 8
      vertex 1 0 13
      vertex 1 0 8
    endloop
  endfacet
  facet normal 0.866025 0.500001 0
    outer loop
      vertex 0.913545 0.406736 13
      vertex 0.809016 0.587785 8
      vertex 0.809016 0.587785 13
    endloop
  endfacet
  facet normal 0.866025 0.500001 0
    outer loop
      vertex 0.809016 0.587785 8
      vertex 0.913545 0.406736 13
      vertex 0.913545 0.406736 8
    endloop
  endfacet
  facet normal 0 0 1
    outer loop
      vertex 0.978148 0.207911 13
      vertex 0.978148 -0.207911 13
      vertex 1 0 13
    endloop
  endfacet
  facet normal 0 0 1
    outer loop
      vertex 0.913545 0.406736 13
      vertex 0.978148 -0.207911 13
      vertex 0.978148 0.207911 13
    endloop
  endfacet
  facet normal 0 0 1
    outer loop
      vertex 0.913545 0.406736 13
      vertex 0.913545 -0.406736 13
      vertex 0.978148 -0.207911 13
    endloop
  endfacet
  facet normal 0 0 1
    outer loop
      vertex 0.809016 0.587785 13
      vertex 0.913545 -0.406736 13
      vertex 0.913545 0.406736 13
    endloop
  endfacet
  facet normal 0 0 1
    outer loop
      vertex 0.809016 0.587785 13
      vertex 0.809016 -0.587785 13
      vertex 0.913545 -0.406736 13
    endloop
  endfacet
  facet normal 0 0 1
    outer loop
      vertex 0.66913 0.743144 13
      vertex 0.809016 -0.587785 13
      vertex 0.809016 0.587785 13
    endloop
  endfacet
  facet normal 0 0 1
    outer loop
      vertex 0.66913 0.743144 13
      vertex 0.66913 -0.743144 13
      vertex 0.809016 -0.587785 13
    endloop
  endfacet
  facet normal 0 0 1
    outer loop
      vertex 0.5 0.866025 13
      vertex 0.66913 -0.743144 13
      vertex 0.66913 0.743144 13
    endloop
  endfacet
  facet normal 0 0 1
    outer loop
      vertex 0.5 0.866025 13
      vertex 0.5 -0.866025 13
      vertex 0.66913 -0.743144 13
    endloop
  endfacet
  facet normal 0 0 1
    outer loop
      vertex 0.309016 0.951056 13
      vertex 0.5 -0.866025 13
      vertex 0.5 0.866025 13
    endloop
  endfacet
  facet normal 0 0 1
    outer loop
      vertex 0.309016 0.951056 13
      vertex 0.309016 -0.951056 13
      vertex 0.5 -0.866025 13
    endloop
  endfacet
  facet normal 0 0 1
    outer loop
      vertex 0.104528 0.994521 13
      vertex 0.309016 -0.951056 13
      vertex 0.309016 0.951056 13
    endloop
  endfacet
  facet normal 0 0 1
    outer loop
      vertex 0.104528 0.994521 13
      vertex 0.104528 -0.994521 13
      vertex 0.309016 -0.951056 13
    endloop
  endfacet
  facet normal -0 0 1
    outer loop
      vertex -0.104528 0.994521 13
      vertex 0.104528 -0.994521 13
      vertex 0.104528 0.994521 13
    endloop
  endfacet
  facet normal 0 0 1
    outer loop
      vertex -0.104528 0.994521 13
      vertex -0.104528 -0.994521 13
      vertex 0.104528 -0.994521 13
    endloop
  endfacet
  facet normal -0 0 1
    outer loop
      vertex -0.309016 0.951056 13
      vertex -0.104528 -0.994521 13
      vertex -0.104528 0.994521 13
    endloop
  endfacet
  facet normal 0 0 1
    outer loop
      vertex -0.309016 0.951056 13
      vertex -0.309016 -0.951056 13
      vertex -0.104528 -0.994521 13
    endloop
  endfacet
  facet normal -0 0 1
    outer loop
      vertex -0.5 0.866025 13
      vertex -0.309016 -0.951056 13
      vertex -0.309016 0.951056 13
    endloop
  endfacet
  facet normal 0 0 1
    outer loop
      vertex -0.5 0.866025 13
      vertex -0.5 -0.866025 13
      vertex -0.309016 -0.951056 13
    endloop
  endfacet
  facet normal -0 0 1
    outer loop
      vertex -0.66913 0.743144 13
      vertex -0.5 -0.866025 13
      vertex -0.5 0.866025 13
    endloop
  endfacet
  facet normal 0 0 1
    outer loop
      vertex -0.66913 0.743144 13
      vertex -0.66913 -0.743144 13
      vertex -0.5 -0.866025 13
    endloop
  endfacet
  facet normal -0 0 1
    outer loop
      vertex -0.809016 0.587785 13
      vertex -0.66913 -0.743144 13
      vertex -0.66913 0.743144 13
    endloop
  endfacet
  facet normal 0 0 1
    outer loop
      vertex -0.809016 0.587785 13
      vertex -0.809016 -0.587785 13
      vertex -0.66913 -0.743144 13
    endloop
  endfacet
  facet normal -0 0 1
    outer loop
      vertex -0.913545 0.406736 13
      vertex -0.809016 -0.587785 13
      vertex -0.809016 0.587785 13
    endloop
  endfacet
  facet normal 0 0 1
    outer loop
      vertex -0.913545 0.406736 13
      vertex -0.913545 -0.406736 13
      vertex -0.809016 -0.587785 13
    endloop
  endfacet
  facet normal -0 0 1
    outer loop
      vertex -0.978148 0.207911 13
      vertex -0.913545 -0.406736 13
      vertex -0.913545 0.406736 13
    endloop
  endfacet
  facet normal 0 0 1
    outer loop
      vertex -0.978148 0.207911 13
      vertex -0.978148 -0.207911 13
      vertex -0.913545 -0.406736 13
    endloop
  endfacet
  facet normal 0 -0 1
    outer loop
      vertex -0.978148 -0.207911 13
      vertex -0.978148 0.207911 13
      vertex -1 0 13
    endloop
  endfacet
  facet normal -0.406734 0.913546 0
    outer loop
      vertex -0.309016 0.951056 8
      vertex -0.5 0.866025 13
      vertex -0.309016 0.951056 13
    endloop
  endfacet
  facet normal -0.406734 0.913546 0
    outer loop
      vertex -0.5 0.866025 13
      vertex -0.309016 0.951056 8
      vertex -0.5 0.866025 8
    endloop
  endfacet
  facet normal 0.951055 -0.309021 0
    outer loop
      vertex 0.913545 -0.406736 13
      vertex 0.978148 -0.207911 8
      vertex 0.978148 -0.207911 13
    endloop
  endfacet
  facet normal 0.951055 -0.309021 0
    outer loop
      vertex 0.978148 -0.207911 8
      vertex 0.913545 -0.406736 13
      vertex 0.913545 -0.406736 8
    endloop
  endfacet
  facet normal 0.994522 -0.104527 0
    outer loop
      vertex 0.978148 -0.207911 13
      vertex 1 0 8
      vertex 1 0 13
    endloop
  endfacet
  facet normal 0.994522 -0.104527 0
    outer loop
      vertex 1 0 8
      vertex 0.978148 -0.207911 13
      vertex 0.978148 -0.207911 8
    endloop
  endfacet
  facet normal 0.406734 0.913546 -0
    outer loop
      vertex 0.5 0.866025 8
      vertex 0.309016 0.951056 13
      vertex 0.5 0.866025 13
    endloop
  endfacet
  facet normal 0.406734 0.913546 0
    outer loop
      vertex 0.309016 0.951056 13
      vertex 0.5 0.866025 8
      vertex 0.309016 0.951056 8
    endloop
  endfacet
  facet normal -0.743145 0.669131 0
    outer loop
      vertex -0.809016 0.587785 8
      vertex -0.66913 0.743144 13
      vertex -0.66913 0.743144 8
    endloop
  endfacet
  facet normal -0.743145 0.669131 0
    outer loop
      vertex -0.66913 0.743144 13
      vertex -0.809016 0.587785 8
      vertex -0.809016 0.587785 13
    endloop
  endfacet
  facet normal -0.866025 0.500001 0
    outer loop
      vertex -0.913545 0.406736 8
      vertex -0.809016 0.587785 13
      vertex -0.809016 0.587785 8
    endloop
  endfacet
  facet normal -0.866025 0.500001 0
    outer loop
      vertex -0.809016 0.587785 13
      vertex -0.913545 0.406736 8
      vertex -0.913545 0.406736 13
    endloop
  endfacet
  facet normal -0.587788 0.809015 0
    outer loop
      vertex -0.5 0.866025 8
      vertex -0.66913 0.743144 13
      vertex -0.5 0.866025 13
    endloop
  endfacet
  facet normal -0.587788 0.809015 0
    outer loop
      vertex -0.66913 0.743144 13
      vertex -0.5 0.866025 8
      vertex -0.66913 0.743144 8
    endloop
  endfacet
  facet normal 0.866025 -0.500001 0
    outer loop
      vertex 0.809016 -0.587785 13
      vertex 0.913545 -0.406736 8
      vertex 0.913545 -0.406736 13
    endloop
  endfacet
  facet normal 0.866025 -0.500001 0
    outer loop
      vertex 0.913545 -0.406736 8
      vertex 0.809016 -0.587785 13
      vertex 0.809016 -0.587785 8
    endloop
  endfacet
  facet normal 0 1 -0
    outer loop
      vertex 0.104528 0.994521 8
      vertex -0.104528 0.994521 13
      vertex 0.104528 0.994521 13
    endloop
  endfacet
  facet normal 0 1 0
    outer loop
      vertex -0.104528 0.994521 13
      vertex 0.104528 0.994521 8
      vertex -0.104528 0.994521 8
    endloop
  endfacet
  facet normal 0.587788 -0.809015 0
    outer loop
      vertex 0.5 -0.866025 8
      vertex 0.66913 -0.743144 13
      vertex 0.5 -0.866025 13
    endloop
  endfacet
  facet normal 0.587788 -0.809015 0
    outer loop
      vertex 0.66913 -0.743144 13
      vertex 0.5 -0.866025 8
      vertex 0.66913 -0.743144 8
    endloop
  endfacet
  facet normal 0.743145 0.669131 0
    outer loop
      vertex 0.809016 0.587785 13
      vertex 0.66913 0.743144 8
      vertex 0.66913 0.743144 13
    endloop
  endfacet
  facet normal 0.743145 0.669131 0
    outer loop
      vertex 0.66913 0.743144 8
      vertex 0.809016 0.587785 13
      vertex 0.809016 0.587785 8
    endloop
  endfacet
  facet normal -0.20791 -0.978148 0
    outer loop
      vertex -0.309016 -0.951056 8
      vertex -0.104528 -0.994521 13
      vertex -0.309016 -0.951056 13
    endloop
  endfacet
  facet normal -0.20791 -0.978148 -0
    outer loop
      vertex -0.104528 -0.994521 13
      vertex -0.309016 -0.951056 8
      vertex -0.104528 -0.994521 8
    endloop
  endfacet
  facet normal -0.951055 0.309021 0
    outer loop
      vertex -0.978148 0.207911 8
      vertex -0.913545 0.406736 13
      vertex -0.913545 0.406736 8
    endloop
  endfacet
  facet normal -0.951055 0.309021 0
    outer loop
      vertex -0.913545 0.406736 13
      vertex -0.978148 0.207911 8
      vertex -0.978148 0.207911 13
    endloop
  endfacet
  facet normal -0.20791 0.978148 0
    outer loop
      vertex -0.104528 0.994521 8
      vertex -0.309016 0.951056 13
      vertex -0.104528 0.994521 13
    endloop
  endfacet
  facet normal -0.20791 0.978148 0
    outer loop
      vertex -0.309016 0.951056 13
      vertex -0.104528 0.994521 8
      vertex -0.309016 0.951056 8
    endloop
  endfacet
  facet normal 0.20791 -0.978148 0
    outer loop
      vertex 0.104528 -0.994521 8
      vertex 0.309016 -0.951056 13
      vertex 0.104528 -0.994521 13
    endloop
  endfacet
  facet normal 0.20791 -0.978148 0
    outer loop
      vertex 0.309016 -0.951056 13
      vertex 0.104528 -0.994521 8
      vertex 0.309016 -0.951056 8
    endloop
  endfacet
  facet normal -0.866025 -0.500001 0
    outer loop
      vertex -0.809016 -0.587785 8
      vertex -0.913545 -0.406736 13
      vertex -0.913545 -0.406736 8
    endloop
  endfacet
  facet normal -0.866025 -0.500001 0
    outer loop
      vertex -0.913545 -0.406736 13
      vertex -0.809016 -0.587785 8
      vertex -0.809016 -0.587785 13
    endloop
  endfacet
  facet normal 0.406734 -0.913546 0
    outer loop
      vertex 0.309016 -0.951056 8
      vertex 0.5 -0.866025 13
      vertex 0.309016 -0.951056 13
    endloop
  endfacet
  facet normal 0.406734 -0.913546 0
    outer loop
      vertex 0.5 -0.866025 13
      vertex 0.309016 -0.951056 8
      vertex 0.5 -0.866025 8
    endloop
  endfacet
  facet normal -0.994522 0.104527 0
    outer loop
      vertex -1 0 8
      vertex -0.978148 0.207911 13
      vertex -0.978148 0.207911 8
    endloop
  endfacet
  facet normal -0.994522 0.104527 0
    outer loop
      vertex -0.978148 0.207911 13
      vertex -1 0 8
      vertex -1 0 13
    endloop
  endfacet
  facet normal 0.587788 0.809015 -0
    outer loop
      vertex 0.66913 0.743144 8
      vertex 0.5 0.866025 13
      vertex 0.66913 0.743144 13
    endloop
  endfacet
  facet normal 0.587788 0.809015 0
    outer loop
      vertex 0.5 0.866025 13
      vertex 0.66913 0.743144 8
      vertex 0.5 0.866025 8
    endloop
  endfacet
  facet normal 0.20791 0.978148 -0
    outer loop
      vertex 0.309016 0.951056 8
      vertex 0.104528 0.994521 13
      vertex 0.309016 0.951056 13
    endloop
  endfacet
  facet normal 0.20791 0.978148 0
    outer loop
      vertex 0.104528 0.994521 13
      vertex 0.309016 0.951056 8
      vertex 0.104528 0.994521 8
    endloop
  endfacet
  facet normal 0.743145 -0.669131 0
    outer loop
      vertex 0.66913 -0.743144 13
      vertex 0.809016 -0.587785 8
      vertex 0.809016 -0.587785 13
    endloop
  endfacet
  facet normal 0.743145 -0.669131 0
    outer loop
      vertex 0.809016 -0.587785 8
      vertex 0.66913 -0.743144 13
      vertex 0.66913 -0.743144 8
    endloop
  endfacet
  facet normal -0.994522 -0.104527 0
    outer loop
      vertex -0.978148 -0.207911 8
      vertex -1 0 13
      vertex -1 0 8
    endloop
  endfacet
  facet normal -0.994522 -0.104527 0
    outer loop
      vertex -1 0 13
      vertex -0.978148 -0.207911 8
      vertex -0.978148 -0.207911 13
    endloop
  endfacet
  facet normal 0 -1 0
    outer loop
      vertex -0.104528 -0.994521 8
      vertex 0.104528 -0.994521 13
      vertex -0.104528 -0.994521 13
    endloop
  endfacet
  facet normal 0 -1 -0
    outer loop
      vertex 0.104528 -0.994521 13
      vertex -0.104528 -0.994521 8
      vertex 0.104528 -0.994521 8
    endloop
  endfacet
  facet normal -0.951055 -0.309021 0
    outer loop
      vertex -0.913545 -0.406736 8
      vertex -0.978148 -0.207911 13
      vertex -0.978148 -0.207911 8
    endloop
  endfacet
  facet normal -0.951055 -0.309021 0
    outer loop
      vertex -0.978148 -0.207911 13
      vertex -0.913545 -0.406736 8
      vertex -0.913545 -0.406736 13
    endloop
  endfacet
  facet normal -0.587788 -0.809015 0
    outer loop
      vertex -0.66913 -0.743144 8
      vertex -0.5 -0.866025 13
      vertex -0.66913 -0.743144 13
    endloop
  endfacet
  facet normal -0.587788 -0.809015 -0
    outer loop
      vertex -0.5 -0.866025 13
      vertex -0.66913 -0.743144 8
      vertex -0.5 -0.866025 8
    endloop
  endfacet
  facet normal -0.743145 -0.669131 0
    outer loop
      vertex -0.66913 -0.743144 8
      vertex -0.809016 -0.587785 13
      vertex -0.809016 -0.587785 8
    endloop
  endfacet
  facet normal -0.743145 -0.669131 0
    outer loop
      vertex -0.809016 -0.587785 13
      vertex -0.66913 -0.743144 8
      vertex -0.66913 -0.743144 13
    endloop
  endfacet
  facet normal -0.406734 -0.913546 0
    outer loop
      vertex -0.5 -0.866025 8
      vertex -0.309016 -0.951056 13
      vertex -0.5 -0.866025 13
    endloop
  endfacet
  facet normal -0.406734 -0.913546 -0
    outer loop
      vertex -0.309016 -0.951056 13
      vertex -0.5 -0.866025 8
      vertex -0.309016 -0.951056 8
    endloop
  endfacet
endsolid OpenSCAD_Model
