solid OpenSCAD_Model
  facet normal -0.743141 0.669135 0
    outer loop
      vertex -5.66312 4.1145 0
      vertex -4.68391 5.20201 8
      vertex -4.68391 5.20201 0
    endloop
  endfacet
  facet normal -0.743141 0.669135 0
    outer loop
      vertex -4.68391 5.20201 8
      vertex -5.66312 4.1145 0
      vertex -5.66312 4.1145 8
    endloop
  endfacet
  facet normal 0.951058 0.309013 0
    outer loop
      vertex 6.84703 1.45538 8
      vertex 6.39482 2.84716 0
      vertex 6.39482 2.84716 8
    endloop
  endfacet
  facet normal 0.951058 0.309013 0
    outer loop
      vertex 6.39482 2.84716 0
      vertex 6.84703 1.45538 8
      vertex 6.84703 1.45538 0
    endloop
  endfacet
  facet normal 0.994522 0.104531 0
    outer loop
      vertex 7 0 8
      vertex 6.84703 1.45538 0
      vertex 6.84703 1.45538 8
    endloop
  endfacet
  facet normal 0.994522 0.104531 0
    outer loop
      vertex 6.84703 1.45538 0
      vertex 7 0 8
      vertex 7 0 0
    endloop
  endfacet
  facet normal 0.866025 0.5 0
    outer loop
      vertex 6.39482 2.84716 8
      vertex 5.66312 4.1145 0
      vertex 5.66312 4.1145 8
    endloop
  endfacet
  facet normal 0.866025 0.5 0
    outer loop
      vertex 5.66312 4.1145 0
      vertex 6.39482 2.84716 8
      vertex 6.39482 2.84716 0
    endloop
  endfacet
  facet normal 0.951058 -0.309013 0
    outer loop
      vertex 6.39482 -2.84716 8
      vertex 6.84703 -1.45538 0
      vertex 6.84703 -1.45538 8
    endloop
  endfacet
  facet normal 0.951058 -0.309013 0
    outer loop
      vertex 6.84703 -1.45538 0
      vertex 6.39482 -2.84716 8
      vertex 6.39482 -2.84716 0
    endloop
  endfacet
  facet normal -0.866025 -0.5 0
    outer loop
      vertex -5.66312 -4.1145 0
      vertex -6.39482 -2.84716 8
      vertex -6.39482 -2.84716 0
    endloop
  endfacet
  facet normal -0.866025 -0.5 0
    outer loop
      vertex -6.39482 -2.84716 8
      vertex -5.66312 -4.1145 0
      vertex -5.66312 -4.1145 8
    endloop
  endfacet
  facet normal 0.994522 -0.104531 0
    outer loop
      vertex 6.84703 -1.45538 8
      vertex 7 0 0
      vertex 7 0 8
    endloop
  endfacet
  facet normal 0.994522 -0.104531 0
    outer loop
      vertex 7 0 0
      vertex 6.84703 -1.45538 8
      vertex 6.84703 -1.45538 0
    endloop
  endfacet
  facet normal -0.587789 0.809014 0
    outer loop
      vertex -3.5 6.06218 0
      vertex -4.68391 5.20201 8
      vertex -3.5 6.06218 8
    endloop
  endfacet
  facet normal -0.587789 0.809014 0
    outer loop
      vertex -4.68391 5.20201 8
      vertex -3.5 6.06218 0
      vertex -4.68391 5.20201 0
    endloop
  endfacet
  facet normal 0.743141 0.669135 0
    outer loop
      vertex 5.66312 4.1145 8
      vertex 4.68391 5.20201 0
      vertex 4.68391 5.20201 8
    endloop
  endfacet
  facet normal 0.743141 0.669135 0
    outer loop
      vertex 4.68391 5.20201 0
      vertex 5.66312 4.1145 8
      vertex 5.66312 4.1145 0
    endloop
  endfacet
  facet normal 0.406738 0.913545 -0
    outer loop
      vertex 3.5 6.06218 0
      vertex 2.16312 6.6574 8
      vertex 3.5 6.06218 8
    endloop
  endfacet
  facet normal 0.406738 0.913545 0
    outer loop
      vertex 2.16312 6.6574 8
      vertex 3.5 6.06218 0
      vertex 2.16312 6.6574 0
    endloop
  endfacet
  facet normal 0.743141 -0.669135 0
    outer loop
      vertex 4.68391 -5.20201 8
      vertex 5.66312 -4.1145 0
      vertex 5.66312 -4.1145 8
    endloop
  endfacet
  facet normal 0.743141 -0.669135 0
    outer loop
      vertex 5.66312 -4.1145 0
      vertex 4.68391 -5.20201 8
      vertex 4.68391 -5.20201 0
    endloop
  endfacet
  facet normal -0.207907 -0.978149 0
    outer loop
      vertex -2.16312 -6.6574 0
      vertex -0.731699 -6.96165 8
      vertex -2.16312 -6.6574 8
    endloop
  endfacet
  facet normal -0.207907 -0.978149 -0
    outer loop
      vertex -0.731699 -6.96165 8
      vertex -2.16312 -6.6574 0
      vertex -0.731699 -6.96165 0
    endloop
  endfacet
  facet normal 0.866025 -0.5 0
    outer loop
      vertex 5.66312 -4.1145 8
      vertex 6.39482 -2.84716 0
      vertex 6.39482 -2.84716 8
    endloop
  endfacet
  facet normal 0.866025 -0.5 0
    outer loop
      vertex 6.39482 -2.84716 0
      vertex 5.66312 -4.1145 8
      vertex 5.66312 -4.1145 0
    endloop
  endfacet
  facet normal -0.406738 -0.913545 0
    outer loop
      vertex -3.5 -6.06218 0
      vertex -2.16312 -6.6574 8
      vertex -3.5 -6.06218 8
    endloop
  endfacet
  facet normal -0.406738 -0.913545 -0
    outer loop
      vertex -2.16312 -6.6574 8
      vertex -3.5 -6.06218 0
      vertex -2.16312 -6.6574 0
    endloop
  endfacet
  facet normal -0.406738 0.913545 0
    outer loop
      vertex -2.16312 6.6574 0
      vertex -3.5 6.06218 8
      vertex -2.16312 6.6574 8
    endloop
  endfacet
  facet normal -0.406738 0.913545 0
    outer loop
      vertex -3.5 6.06218 8
      vertex -2.16312 6.6574 0
      vertex -3.5 6.06218 0
    endloop
  endfacet
  facet normal -0.951058 0.309013 0
    outer loop
      vertex -6.84703 1.45538 0
      vertex -6.39482 2.84716 8
      vertex -6.39482 2.84716 0
    endloop
  endfacet
  facet normal -0.951058 0.309013 0
    outer loop
      vertex -6.39482 2.84716 8
      vertex -6.84703 1.45538 0
      vertex -6.84703 1.45538 8
    endloop
  endfacet
  facet normal 0.207907 -0.978149 0
    outer loop
      vertex 0.731699 -6.96165 0
      vertex 2.16312 -6.6574 8
      vertex 0.731699 -6.96165 8
    endloop
  endfacet
  facet normal 0.207907 -0.978149 0
    outer loop
      vertex 2.16312 -6.6574 8
      vertex 0.731699 -6.96165 0
      vertex 2.16312 -6.6574 0
    endloop
  endfacet
  facet normal 0.207907 0.978149 -0
    outer loop
      vertex 2.16312 6.6574 0
      vertex 0.731699 6.96165 8
      vertex 2.16312 6.6574 8
    endloop
  endfacet
  facet normal 0.207907 0.978149 0
    outer loop
      vertex 0.731699 6.96165 8
      vertex 2.16312 6.6574 0
      vertex 0.731699 6.96165 0
    endloop
  endfacet
  facet normal 0.406738 -0.913545 0
    outer loop
      vertex 2.16312 -6.6574 0
      vertex 3.5 -6.06218 8
      vertex 2.16312 -6.6574 8
    endloop
  endfacet
  facet normal 0.406738 -0.913545 0
    outer loop
      vertex 3.5 -6.06218 8
      vertex 2.16312 -6.6574 0
      vertex 3.5 -6.06218 0
    endloop
  endfacet
  facet normal -0.951058 -0.309013 0
    outer loop
      vertex -6.39482 -2.84716 0
      vertex -6.84703 -1.45538 8
      vertex -6.84703 -1.45538 0
    endloop
  endfacet
  facet normal -0.951058 -0.309013 0
    outer loop
      vertex -6.84703 -1.45538 8
      vertex -6.39482 -2.84716 0
      vertex -6.39482 -2.84716 8
    endloop
  endfacet
  facet normal -0.994522 0.104531 0
    outer loop
      vertex -7 0 0
      vertex -6.84703 1.45538 8
      vertex -6.84703 1.45538 0
    endloop
  endfacet
  facet normal -0.994522 0.104531 0
    outer loop
      vertex -6.84703 1.45538 8
      vertex -7 0 0
      vertex -7 0 8
    endloop
  endfacet
  facet normal -0.207907 0.978149 0
    outer loop
      vertex -0.731699 6.96165 0
      vertex -2.16312 6.6574 8
      vertex -0.731699 6.96165 8
    endloop
  endfacet
  facet normal -0.207907 0.978149 0
    outer loop
      vertex -2.16312 6.6574 8
      vertex -0.731699 6.96165 0
      vertex -2.16312 6.6574 0
    endloop
  endfacet
  facet normal 0.587789 0.809014 -0
    outer loop
      vertex 4.68391 5.20201 0
      vertex 3.5 6.06218 8
      vertex 4.68391 5.20201 8
    endloop
  endfacet
  facet normal 0.587789 0.809014 0
    outer loop
      vertex 3.5 6.06218 8
      vertex 4.68391 5.20201 0
      vertex 3.5 6.06218 0
    endloop
  endfacet
  facet normal 0 0 1
    outer loop
      vertex 1 0 8
      vertex 7 0 8
      vertex 6.84703 1.45538 8
    endloop
  endfacet
  facet normal 0 0 1
    outer loop
      vertex 0.978148 0.207911 8
      vertex 6.84703 1.45538 8
      vertex 6.39482 2.84716 8
    endloop
  endfacet
  facet normal 0 0 1
    outer loop
      vertex 7 0 8
      vertex 1 0 8
      vertex 6.84703 -1.45538 8
    endloop
  endfacet
  facet normal 0 0 1
    outer loop
      vertex 0.913545 0.406736 8
      vertex 6.39482 2.84716 8
      vertex 5.66312 4.1145 8
    endloop
  endfacet
  facet normal -0 0 1
    outer loop
      vertex 0.978148 -0.207911 8
      vertex 6.84703 -1.45538 8
      vertex 1 0 8
    endloop
  endfacet
  facet normal 0 0 1
    outer loop
      vertex 0.809016 0.587785 8
      vertex 5.66312 4.1145 8
      vertex 4.68391 5.20201 8
    endloop
  endfacet
  facet normal 0 0 1
    outer loop
      vertex 6.84703 -1.45538 8
      vertex 0.978148 -0.207911 8
      vertex 6.39482 -2.84716 8
    endloop
  endfacet
  facet normal 0 0 1
    outer loop
      vertex 0.66913 0.743144 8
      vertex 4.68391 5.20201 8
      vertex 3.5 6.06218 8
    endloop
  endfacet
  facet normal -0 0 1
    outer loop
      vertex 0.913545 -0.406736 8
      vertex 6.39482 -2.84716 8
      vertex 0.978148 -0.207911 8
    endloop
  endfacet
  facet normal 0 0 1
    outer loop
      vertex 0.5 0.866025 8
      vertex 3.5 6.06218 8
      vertex 2.16312 6.6574 8
    endloop
  endfacet
  facet normal 0 0 1
    outer loop
      vertex 6.39482 -2.84716 8
      vertex 0.913545 -0.406736 8
      vertex 5.66312 -4.1145 8
    endloop
  endfacet
  facet normal -0 0 1
    outer loop
      vertex 0.809016 -0.587785 8
      vertex 5.66312 -4.1145 8
      vertex 0.913545 -0.406736 8
    endloop
  endfacet
  facet normal 0 0 1
    outer loop
      vertex 6.84703 1.45538 8
      vertex 0.978148 0.207911 8
      vertex 1 0 8
    endloop
  endfacet
  facet normal 0 0 1
    outer loop
      vertex 6.39482 2.84716 8
      vertex 0.913545 0.406736 8
      vertex 0.978148 0.207911 8
    endloop
  endfacet
  facet normal 0 0 1
    outer loop
      vertex 5.66312 4.1145 8
      vertex 0.809016 0.587785 8
      vertex 0.913545 0.406736 8
    endloop
  endfacet
  facet normal 0 0 1
    outer loop
      vertex 0.309016 0.951056 8
      vertex 2.16312 6.6574 8
      vertex 0.731699 6.96165 8
    endloop
  endfacet
  facet normal 0 0 1
    outer loop
      vertex 4.68391 5.20201 8
      vertex 0.66913 0.743144 8
      vertex 0.809016 0.587785 8
    endloop
  endfacet
  facet normal 0 0 1
    outer loop
      vertex 3.5 6.06218 8
      vertex 0.5 0.866025 8
      vertex 0.66913 0.743144 8
    endloop
  endfacet
  facet normal 0 0 1
    outer loop
      vertex 2.16312 6.6574 8
      vertex 0.309016 0.951056 8
      vertex 0.5 0.866025 8
    endloop
  endfacet
  facet normal 0 0 1
    outer loop
      vertex 0.731699 6.96165 8
      vertex 0.104528 0.994521 8
      vertex 0.309016 0.951056 8
    endloop
  endfacet
  facet normal 0 0 1
    outer loop
      vertex 0.731699 6.96165 8
      vertex -0.104528 0.994521 8
      vertex 0.104528 0.994521 8
    endloop
  endfacet
  facet normal -0 0 1
    outer loop
      vertex -0.731699 6.96165 8
      vertex -0.104528 0.994521 8
      vertex 0.731699 6.96165 8
    endloop
  endfacet
  facet normal 0 0 1
    outer loop
      vertex -0.104528 0.994521 8
      vertex -0.731699 6.96165 8
      vertex -0.309016 0.951056 8
    endloop
  endfacet
  facet normal -0 0 1
    outer loop
      vertex -2.16312 6.6574 8
      vertex -0.309016 0.951056 8
      vertex -0.731699 6.96165 8
    endloop
  endfacet
  facet normal 0 0 1
    outer loop
      vertex -0.309016 0.951056 8
      vertex -2.16312 6.6574 8
      vertex -0.5 0.866025 8
    endloop
  endfacet
  facet normal -0 0 1
    outer loop
      vertex -3.5 6.06218 8
      vertex -0.5 0.866025 8
      vertex -2.16312 6.6574 8
    endloop
  endfacet
  facet normal 0 0 1
    outer loop
      vertex -0.5 0.866025 8
      vertex -3.5 6.06218 8
      vertex -0.66913 0.743144 8
    endloop
  endfacet
  facet normal -0 0 1
    outer loop
      vertex -4.68391 5.20201 8
      vertex -0.66913 0.743144 8
      vertex -3.5 6.06218 8
    endloop
  endfacet
  facet normal 0 0 1
    outer loop
      vertex -0.66913 0.743144 8
      vertex -4.68391 5.20201 8
      vertex -0.809016 0.587785 8
    endloop
  endfacet
  facet normal -0 0 1
    outer loop
      vertex -5.66312 4.1145 8
      vertex -0.809016 0.587785 8
      vertex -4.68391 5.20201 8
    endloop
  endfacet
  facet normal 0 0 1
    outer loop
      vertex 5.66312 -4.1145 8
      vertex 0.809016 -0.587785 8
      vertex 4.68391 -5.20201 8
    endloop
  endfacet
  facet normal -0 0 1
    outer loop
      vertex 0.66913 -0.743144 8
      vertex 4.68391 -5.20201 8
      vertex 0.809016 -0.587785 8
    endloop
  endfacet
  facet normal 0 0 1
    outer loop
      vertex 4.68391 -5.20201 8
      vertex 0.66913 -0.743144 8
      vertex 3.5 -6.06218 8
    endloop
  endfacet
  facet normal -0 0 1
    outer loop
      vertex 0.5 -0.866025 8
      vertex 3.5 -6.06218 8
      vertex 0.66913 -0.743144 8
    endloop
  endfacet
  facet normal 0 0 1
    outer loop
      vertex 3.5 -6.06218 8
      vertex 0.5 -0.866025 8
      vertex 2.16312 -6.6574 8
    endloop
  endfacet
  facet normal -0 0 1
    outer loop
      vertex 0.309016 -0.951056 8
      vertex 2.16312 -6.6574 8
      vertex 0.5 -0.866025 8
    endloop
  endfacet
  facet normal 0 0 1
    outer loop
      vertex 2.16312 -6.6574 8
      vertex 0.309016 -0.951056 8
      vertex 0.731699 -6.96165 8
    endloop
  endfacet
  facet normal -0 0 1
    outer loop
      vertex 0.104528 -0.994521 8
      vertex 0.731699 -6.96165 8
      vertex 0.309016 -0.951056 8
    endloop
  endfacet
  facet normal -0 0 1
    outer loop
      vertex -0.104528 -0.994521 8
      vertex 0.731699 -6.96165 8
      vertex 0.104528 -0.994521 8
    endloop
  endfacet
  facet normal 0 0 1
    outer loop
      vertex -0.731699 -6.96165 8
      vertex -0.104528 -0.994521 8
      vertex -0.309016 -0.951056 8
    endloop
  endfacet
  facet normal 0 0 1
    outer loop
      vertex -2.16312 -6.6574 8
      vertex -0.309016 -0.951056 8
      vertex -0.5 -0.866025 8
    endloop
  endfacet
  facet normal 0 0 1
    outer loop
      vertex -3.5 -6.06218 8
      vertex -0.5 -0.866025 8
      vertex -0.66913 -0.743144 8
    endloop
  endfacet
  facet normal 0 0 1
    outer loop
      vertex -0.104528 -0.994521 8
      vertex -0.731699 -6.96165 8
      vertex 0.731699 -6.96165 8
    endloop
  endfacet
  facet normal 0 0 1
    outer loop
      vertex -4.68391 -5.20201 8
      vertex -0.66913 -0.743144 8
      vertex -0.809016 -0.587785 8
    endloop
  endfacet
  facet normal 0 0 1
    outer loop
      vertex -5.66312 -4.1145 8
      vertex -0.809016 -0.587785 8
      vertex -0.913545 -0.406736 8
    endloop
  endfacet
  facet normal 0 0 1
    outer loop
      vertex -6.39482 -2.84716 8
      vertex -0.913545 -0.406736 8
      vertex -0.978148 -0.207911 8
    endloop
  endfacet
  facet normal 0 0 1
    outer loop
      vertex -6.84703 -1.45538 8
      vertex -0.978148 -0.207911 8
      vertex -1 0 8
    endloop
  endfacet
  facet normal 0 0 1
    outer loop
      vertex -0.809016 0.587785 8
      vertex -5.66312 4.1145 8
      vertex -0.913545 0.406736 8
    endloop
  endfacet
  facet normal 0 0 1
    outer loop
      vertex -0.309016 -0.951056 8
      vertex -2.16312 -6.6574 8
      vertex -0.731699 -6.96165 8
    endloop
  endfacet
  facet normal -0 0 1
    outer loop
      vertex -6.39482 2.84716 8
      vertex -0.913545 0.406736 8
      vertex -5.66312 4.1145 8
    endloop
  endfacet
  facet normal 0 0 1
    outer loop
      vertex -0.5 -0.866025 8
      vertex -3.5 -6.06218 8
      vertex -2.16312 -6.6574 8
    endloop
  endfacet
  facet normal 0 0 1
    outer loop
      vertex -0.913545 0.406736 8
      vertex -6.39482 2.84716 8
      vertex -0.978148 0.207911 8
    endloop
  endfacet
  facet normal 0 0 1
    outer loop
      vertex -0.66913 -0.743144 8
      vertex -4.68391 -5.20201 8
      vertex -3.5 -6.06218 8
    endloop
  endfacet
  facet normal -0 0 1
    outer loop
      vertex -6.84703 1.45538 8
      vertex -0.978148 0.207911 8
      vertex -6.39482 2.84716 8
    endloop
  endfacet
  facet normal 0 0 1
    outer loop
      vertex -0.809016 -0.587785 8
      vertex -5.66312 -4.1145 8
      vertex -4.68391 -5.20201 8
    endloop
  endfacet
  facet normal 0 0 1
    outer loop
      vertex -0.978148 0.207911 8
      vertex -6.84703 1.45538 8
      vertex -1 0 8
    endloop
  endfacet
  facet normal 0 0 1
    outer loop
      vertex -0.913545 -0.406736 8
      vertex -6.39482 -2.84716 8
      vertex -5.66312 -4.1145 8
    endloop
  endfacet
  facet normal 0 0 1
    outer loop
      vertex -7 0 8
      vertex -1 0 8
      vertex -6.84703 1.45538 8
    endloop
  endfacet
  facet normal 0 0 1
    outer loop
      vertex -0.978148 -0.207911 8
      vertex -6.84703 -1.45538 8
      vertex -6.39482 -2.84716 8
    endloop
  endfacet
  facet normal 0 0 1
    outer loop
      vertex -1 0 8
      vertex -7 0 8
      vertex -6.84703 -1.45538 8
    endloop
  endfacet
  facet normal 0.587789 -0.809014 0
    outer loop
      vertex 3.5 -6.06218 0
      vertex 4.68391 -5.20201 8
      vertex 3.5 -6.06218 8
    endloop
  endfacet
  facet normal 0.587789 -0.809014 0
    outer loop
      vertex 4.68391 -5.20201 8
      vertex 3.5 -6.06218 0
      vertex 4.68391 -5.20201 0
    endloop
  endfacet
  facet normal -0.994522 -0.104531 0
    outer loop
      vertex -6.84703 -1.45538 0
      vertex -7 0 8
      vertex -7 0 0
    endloop
  endfacet
  facet normal -0.994522 -0.104531 0
    outer loop
      vertex -7 0 8
      vertex -6.84703 -1.45538 0
      vertex -6.84703 -1.45538 8
    endloop
  endfacet
  facet normal 0 -1 0
    outer loop
      vertex -0.731699 -6.96165 0
      vertex 0.731699 -6.96165 8
      vertex -0.731699 -6.96165 8
    endloop
  endfacet
  facet normal 0 -1 -0
    outer loop
      vertex 0.731699 -6.96165 8
      vertex -0.731699 -6.96165 0
      vertex 0.731699 -6.96165 0
    endloop
  endfacet
  facet normal 0 0 -1
    outer loop
      vertex 6.84703 -1.45538 0
      vertex 6.84703 1.45538 0
      vertex 7 0 0
    endloop
  endfacet
  facet normal 0 0 -1
    outer loop
      vertex 6.39482 -2.84716 0
      vertex 6.84703 1.45538 0
      vertex 6.84703 -1.45538 0
    endloop
  endfacet
  facet normal 0 0 -1
    outer loop
      vertex 6.39482 -2.84716 0
      vertex 6.39482 2.84716 0
      vertex 6.84703 1.45538 0
    endloop
  endfacet
  facet normal 0 0 -1
    outer loop
      vertex 5.66312 -4.1145 0
      vertex 6.39482 2.84716 0
      vertex 6.39482 -2.84716 0
    endloop
  endfacet
  facet normal 0 0 -1
    outer loop
      vertex 5.66312 -4.1145 0
      vertex 5.66312 4.1145 0
      vertex 6.39482 2.84716 0
    endloop
  endfacet
  facet normal 0 0 -1
    outer loop
      vertex 4.68391 -5.20201 0
      vertex 5.66312 4.1145 0
      vertex 5.66312 -4.1145 0
    endloop
  endfacet
  facet normal 0 0 -1
    outer loop
      vertex 4.68391 -5.20201 0
      vertex 4.68391 5.20201 0
      vertex 5.66312 4.1145 0
    endloop
  endfacet
  facet normal 0 0 -1
    outer loop
      vertex 3.5 -6.06218 0
      vertex 4.68391 5.20201 0
      vertex 4.68391 -5.20201 0
    endloop
  endfacet
  facet normal 0 0 -1
    outer loop
      vertex 3.5 -6.06218 0
      vertex 3.5 6.06218 0
      vertex 4.68391 5.20201 0
    endloop
  endfacet
  facet normal 0 0 -1
    outer loop
      vertex 2.16312 -6.6574 0
      vertex 3.5 6.06218 0
      vertex 3.5 -6.06218 0
    endloop
  endfacet
  facet normal 0 0 -1
    outer loop
      vertex 2.16312 -6.6574 0
      vertex 2.16312 6.6574 0
      vertex 3.5 6.06218 0
    endloop
  endfacet
  facet normal 0 0 -1
    outer loop
      vertex 0.731699 -6.96165 0
      vertex 2.16312 6.6574 0
      vertex 2.16312 -6.6574 0
    endloop
  endfacet
  facet normal 0 0 -1
    outer loop
      vertex 0.731699 -6.96165 0
      vertex 0.731699 6.96165 0
      vertex 2.16312 6.6574 0
    endloop
  endfacet
  facet normal 0 0 -1
    outer loop
      vertex -0.731699 -6.96165 0
      vertex 0.731699 6.96165 0
      vertex 0.731699 -6.96165 0
    endloop
  endfacet
  facet normal 0 0 -1
    outer loop
      vertex -0.731699 -6.96165 0
      vertex -0.731699 6.96165 0
      vertex 0.731699 6.96165 0
    endloop
  endfacet
  facet normal 0 0 -1
    outer loop
      vertex -2.16312 -6.6574 0
      vertex -0.731699 6.96165 0
      vertex -0.731699 -6.96165 0
    endloop
  endfacet
  facet normal 0 0 -1
    outer loop
      vertex -2.16312 -6.6574 0
      vertex -2.16312 6.6574 0
      vertex -0.731699 6.96165 0
    endloop
  endfacet
  facet normal 0 0 -1
    outer loop
      vertex -3.5 -6.06218 0
      vertex -2.16312 6.6574 0
      vertex -2.16312 -6.6574 0
    endloop
  endfacet
  facet normal 0 0 -1
    outer loop
      vertex -3.5 -6.06218 0
      vertex -3.5 6.06218 0
      vertex -2.16312 6.6574 0
    endloop
  endfacet
  facet normal 0 0 -1
    outer loop
      vertex -4.68391 -5.20201 0
      vertex -3.5 6.06218 0
      vertex -3.5 -6.06218 0
    endloop
  endfacet
  facet normal 0 0 -1
    outer loop
      vertex -4.68391 -5.20201 0
      vertex -4.68391 5.20201 0
      vertex -3.5 6.06218 0
    endloop
  endfacet
  facet normal 0 0 -1
    outer loop
      vertex -5.66312 -4.1145 0
      vertex -4.68391 5.20201 0
      vertex -4.68391 -5.20201 0
    endloop
  endfacet
  facet normal 0 0 -1
    outer loop
      vertex -5.66312 -4.1145 0
      vertex -5.66312 4.1145 0
      vertex -4.68391 5.20201 0
    endloop
  endfacet
  facet normal 0 0 -1
    outer loop
      vertex -6.39482 -2.84716 0
      vertex -5.66312 4.1145 0
      vertex -5.66312 -4.1145 0
    endloop
  endfacet
  facet normal 0 0 -1
    outer loop
      vertex -6.39482 -2.84716 0
      vertex -6.39482 2.84716 0
      vertex -5.66312 4.1145 0
    endloop
  endfacet
  facet normal 0 0 -1
    outer loop
      vertex -6.84703 -1.45538 0
      vertex -6.39482 2.84716 0
      vertex -6.39482 -2.84716 0
    endloop
  endfacet
  facet normal 0 0 -1
    outer loop
      vertex -6.84703 -1.45538 0
      vertex -6.84703 1.45538 0
      vertex -6.39482 2.84716 0
    endloop
  endfacet
  facet normal 0 -0 -1
    outer loop
      vertex -6.84703 1.45538 0
      vertex -6.84703 -1.45538 0
      vertex -7 0 0
    endloop
  endfacet
  facet normal 0 1 -0
    outer loop
      vertex 0.731699 6.96165 0
      vertex -0.731699 6.96165 8
      vertex 0.731699 6.96165 8
    endloop
  endfacet
  facet normal 0 1 0
    outer loop
      vertex -0.731699 6.96165 8
      vertex 0.731699 6.96165 0
      vertex -0.731699 6.96165 0
    endloop
  endfacet
  facet normal -0.743141 -0.669135 0
    outer loop
      vertex -4.68391 -5.20201 0
      vertex -5.66312 -4.1145 8
      vertex -5.66312 -4.1145 0
    endloop
  endfacet
  facet normal -0.743141 -0.669135 0
    outer loop
      vertex -5.66312 -4.1145 8
      vertex -4.68391 -5.20201 0
      vertex -4.68391 -5.20201 8
    endloop
  endfacet
  facet normal -0.587789 -0.809014 0
    outer loop
      vertex -4.68391 -5.20201 0
      vertex -3.5 -6.06218 8
      vertex -4.68391 -5.20201 8
    endloop
  endfacet
  facet normal -0.587789 -0.809014 -0
    outer loop
      vertex -3.5 -6.06218 8
      vertex -4.68391 -5.20201 0
      vertex -3.5 -6.06218 0
    endloop
  endfacet
  facet normal -0.866025 0.5 0
    outer loop
      vertex -6.39482 2.84716 0
      vertex -5.66312 4.1145 8
      vertex -5.66312 4.1145 0
    endloop
  endfacet
  facet normal -0.866025 0.5 0
    outer loop
      vertex -5.66312 4.1145 8
      vertex -6.39482 2.84716 0
      vertex -6.39482 2.84716 8
    endloop
  endfacet
  facet normal 0.951055 0.309021 0
    outer loop
      vertex 0.978148 0.207911 13
      vertex 0.913545 0.406736 8
      vertex 0.913545 0.406736 13
    endloop
  endfacet
  facet normal 0.951055 0.309021 0
    outer loop
      vertex 0.913545 0.406736 8
      vertex 0.978148 0.207911 13
      vertex 0.978148 0.207911 8
    endloop
  endfacet
  facet normal 0.994522 0.104527 0
    outer loop
      vertex 1 0 13
      vertex 0.978148 0.207911 8
      vertex 0.978148 0.207911 13
    endloop
  endfacet
  facet normal 0.994522 0.104527 0
    outer loop
      vertex 0.978148 0.207911 8
      vertex 1 0 13
      vertex 1 0 8
    endloop
  endfacet
  facet normal 0.866025 0.500001 0
    outer loop
      vertex 0.913545 0.406736 13
      vertex 0.809016 0.587785 8
      vertex 0.809016 0.587785 13
    endloop
  endfacet
  facet normal 0.866025 0.500001 0
    outer loop
      vertex 0.809016 0.587785 8
      vertex 0.913545 0.406736 13
      vertex 0.913545 0.406736 8
    endloop
  endfacet
  facet normal 0 0 1
    outer loop
      vertex 0.978148 0.207911 13
      vertex 0.978148 -0.207911 13
      vertex 1 0 13
    endloop
  endfacet
  facet normal 0 0 1
    outer loop
      vertex 0.913545 0.406736 13
      vertex 0.978148 -0.207911 13
      vertex 0.978148 0.207911 13
    endloop
  endfacet
  facet normal 0 0 1
    outer loop
      vertex 0.913545 0.406736 13
      vertex 0.913545 -0.406736 13
      vertex 0.978148 -0.207911 13
    endloop
  endfacet
  facet normal 0 0 1
    outer loop
      vertex 0.809016 0.587785 13
      vertex 0.913545 -0.406736 13
      vertex 0.913545 0.406736 13
    endloop
  endfacet
  facet normal 0 0 1
    outer loop
      vertex 0.809016 0.587785 13
      vertex 0.809016 -0.587785 13
      vertex 0.913545 -0.406736 13
    endloop
  endfacet
  facet normal 0 0 1
    outer loop
      vertex 0.66913 0.743144 13
      vertex 0.809016 -0.587785 13
      vertex 0.809016 0.587785 13
    endloop
  endfacet
  facet normal 0 0 1
    outer loop
      vertex 0.66913 0.743144 13
      vertex 0.66913 -0.743144 13
      vertex 0.809016 -0.587785 13
    endloop
  endfacet
  facet normal 0 0 1
    outer loop
      vertex 0.5 0.866025 13
      vertex 0.66913 -0.743144 13
      vertex 0.66913 0.743144 13
    endloop
  endfacet
  facet normal 0 0 1
    outer loop
      vertex 0.5 0.866025 13
      vertex 0.5 -0.866025 13
      vertex 0.66913 -0.743144 13
    endloop
  endfacet
  facet normal 0 0 1
    outer loop
      vertex 0.309016 0.951056 13
      vertex 0.5 -0.866025 13
      vertex 0.5 0.866025 13
    endloop
  endfacet
  facet normal 0 0 1
    outer loop
      vertex 0.309016 0.951056 13
      vertex 0.309016 -0.951056 13
      vertex 0.5 -0.866025 13
    endloop
  endfacet
  facet normal 0 0 1
    outer loop
      vertex 0.104528 0.994521 13
      vertex 0.309016 -0.951056 13
      vertex 0.309016 0.951056 13
    endloop
  endfacet
  facet normal 0 0 1
    outer loop
      vertex 0.104528 0.994521 13
      vertex 0.104528 -0.994521 13
      vertex 0.309016 -0.951056 13
    endloop
  endfacet
  facet normal -0 0 1
    outer loop
      vertex -0.104528 0.994521 13
      vertex 0.104528 -0.994521 13
      vertex 0.104528 0.994521 13
    endloop
  endfacet
  facet normal 0 0 1
    outer loop
      vertex -0.104528 0.994521 13
      vertex -0.104528 -0.994521 13
      vertex 0.104528 -0.994521 13
    endloop
  endfacet
  facet normal -0 0 1
    outer loop
      vertex -0.309016 0.951056 13
      vertex -0.104528 -0.994521 13
      vertex -0.104528 0.994521 13
    endloop
  endfacet
  facet normal 0 0 1
    outer loop
      vertex -0.309016 0.951056 13
      vertex -0.309016 -0.951056 13
      vertex -0.104528 -0.994521 13
    endloop
  endfacet
  facet normal -0 0 1
    outer loop
      vertex -0.5 0.866025 13
      vertex -0.309016 -0.951056 13
      vertex -0.309016 0.951056 13
    endloop
  endfacet
  facet normal 0 0 1
    outer loop
      vertex -0.5 0.866025 13
      vertex -0.5 -0.866025 13
      vertex -0.309016 -0.951056 13
    endloop
  endfacet
  facet normal -0 0 1
    outer loop
      vertex -0.66913 0.743144 13
      vertex -0.5 -0.866025 13
      vertex -0.5 0.866025 13
    endloop
  endfacet
  facet normal 0 0 1
    outer loop
      vertex -0.66913 0.743144 13
      vertex -0.66913 -0.743144 13
      vertex -0.5 -0.866025 13
    endloop
  endfacet
  facet normal -0 0 1
    outer loop
      vertex -0.809016 0.587785 13
      vertex -0.66913 -0.743144 13
      vertex -0.66913 0.743144 13
    endloop
  endfacet
  facet normal 0 0 1
    outer loop
      vertex -0.809016 0.587785 13
      vertex -0.809016 -0.587785 13
      vertex -0.66913 -0.743144 13
    endloop
  endfacet
  facet normal -0 0 1
    outer loop
      vertex -0.913545 0.406736 13
      vertex -0.809016 -0.587785 13
      vertex -0.809016 0.587785 13
    endloop
  endfacet
  facet normal 0 0 1
    outer loop
      vertex -0.913545 0.406736 13
      vertex -0.913545 -0.406736 13
      vertex -0.809016 -0.587785 13
    endloop
  endfacet
  facet normal -0 0 1
    outer loop
      vertex -0.978148 0.207911 13
      vertex -0.913545 -0.406736 13
      vertex -0.913545 0.406736 13
    endloop
  endfacet
  facet normal 0 0 1
    outer loop
      vertex -0.978148 0.207911 13
      vertex -0.978148 -0.207911 13
      vertex -0.913545 -0.406736 13
    endloop
  endfacet
  facet normal 0 -0 1
    outer loop
      vertex -0.978148 -0.207911 13
      vertex -0.978148 0.207911 13
      vertex -1 0 13
    endloop
  endfacet
  facet normal -0.406734 0.913546 0
    outer loop
      vertex -0.309016 0.951056 8
      vertex -0.5 0.866025 13
      vertex -0.309016 0.951056 13
    endloop
  endfacet
  facet normal -0.406734 0.913546 0
    outer loop
      vertex -0.5 0.866025 13
      vertex -0.309016 0.951056 8
      vertex -0.5 0.866025 8
    endloop
  endfacet
  facet normal 0.951055 -0.309021 0
    outer loop
      vertex 0.913545 -0.406736 13
      vertex 0.978148 -0.207911 8
      vertex 0.978148 -0.207911 13
    endloop
  endfacet
  facet normal 0.951055 -0.309021 0
    outer loop
      vertex 0.978148 -0.207911 8
      vertex 0.913545 -0.406736 13
      vertex 0.913545 -0.406736 8
    endloop
  endfacet
  facet normal 0.994522 -0.104527 0
    outer loop
      vertex 0.978148 -0.207911 13
      vertex 1 0 8
      vertex 1 0 13
    endloop
  endfacet
  facet normal 0.994522 -0.104527 0
    outer loop
      vertex 1 0 8
      vertex 0.978148 -0.207911 13
      vertex 0.978148 -0.207911 8
    endloop
  endfacet
  facet normal 0.406734 0.913546 -0
    outer loop
      vertex 0.5 0.866025 8
      vertex 0.309016 0.951056 13
      vertex 0.5 0.866025 13
    endloop
  endfacet
  facet normal 0.406734 0.913546 0
    outer loop
      vertex 0.309016 0.951056 13
      vertex 0.5 0.866025 8
      vertex 0.309016 0.951056 8
    endloop
  endfacet
  facet normal -0.743145 0.669131 0
    outer loop
      vertex -0.809016 0.587785 8
      vertex -0.66913 0.743144 13
      vertex -0.66913 0.743144 8
    endloop
  endfacet
  facet normal -0.743145 0.669131 0
    outer loop
      vertex -0.66913 0.743144 13
      vertex -0.809016 0.587785 8
      vertex -0.809016 0.587785 13
    endloop
  endfacet
  facet normal -0.866025 0.500001 0
    outer loop
      vertex -0.913545 0.406736 8
      vertex -0.809016 0.587785 13
      vertex -0.809016 0.587785 8
    endloop
  endfacet
  facet normal -0.866025 0.500001 0
    outer loop
      vertex -0.809016 0.587785 13
      vertex -0.913545 0.406736 8
      vertex -0.913545 0.406736 13
    endloop
  endfacet
  facet normal -0.587788 0.809015 0
    outer loop
      vertex -0.5 0.866025 8
      vertex -0.66913 0.743144 13
      vertex -0.5 0.866025 13
    endloop
  endfacet
  facet normal -0.587788 0.809015 0
    outer loop
      vertex -0.66913 0.743144 13
      vertex -0.5 0.866025 8
      vertex -0.66913 0.743144 8
    endloop
  endfacet
  facet normal 0.866025 -0.500001 0
    outer loop
      vertex 0.809016 -0.587785 13
      vertex 0.913545 -0.406736 8
      vertex 0.913545 -0.406736 13
    endloop
  endfacet
  facet normal 0.866025 -0.500001 0
    outer loop
      vertex 0.913545 -0.406736 8
      vertex 0.809016 -0.587785 13
      vertex 0.809016 -0.587785 8
    endloop
  endfacet
  facet normal 0 1 -0
    outer loop
      vertex 0.104528 0.994521 8
      vertex -0.104528 0.994521 13
      vertex 0.104528 0.994521 13
    endloop
  endfacet
  facet normal 0 1 0
    outer loop
      vertex -0.104528 0.994521 13
      vertex 0.104528 0.994521 8
      vertex -0.104528 0.994521 8
    endloop
  endfacet
  facet normal 0.587788 -0.809015 0
    outer loop
      vertex 0.5 -0.866025 8
      vertex 0.66913 -0.743144 13
      vertex 0.5 -0.866025 13
    endloop
  endfacet
  facet normal 0.587788 -0.809015 0
    outer loop
      vertex 0.66913 -0.743144 13
      vertex 0.5 -0.866025 8
      vertex 0.66913 -0.743144 8
    endloop
  endfacet
  facet normal 0.743145 0.669131 0
    outer loop
      vertex 0.809016 0.587785 13
      vertex 0.66913 0.743144 8
      vertex 0.66913 0.743144 13
    endloop
  endfacet
  facet normal 0.743145 0.669131 0
    outer loop
      vertex 0.66913 0.743144 8
      vertex 0.809016 0.587785 13
      vertex 0.809016 0.587785 8
    endloop
  endfacet
  facet normal -0.20791 -0.978148 0
    outer loop
      vertex -0.309016 -0.951056 8
      vertex -0.104528 -0.994521 13
      vertex -0.309016 -0.951056 13
    endloop
  endfacet
  facet normal -0.20791 -0.978148 -0
    outer loop
      vertex -0.104528 -0.994521 13
      vertex -0.309016 -0.951056 8
      vertex -0.104528 -0.994521 8
    endloop
  endfacet
  facet normal -0.951055 0.309021 0
    outer loop
      vertex -0.978148 0.207911 8
      vertex -0.913545 0.406736 13
      vertex -0.913545 0.406736 8
    endloop
  endfacet
  facet normal -0.951055 0.309021 0
    outer loop
      vertex -0.913545 0.406736 13
      vertex -0.978148 0.207911 8
      vertex -0.978148 0.207911 13
    endloop
  endfacet
  facet normal -0.20791 0.978148 0
    outer loop
      vertex -0.104528 0.994521 8
      vertex -0.309016 0.951056 13
      vertex -0.104528 0.994521 13
    endloop
  endfacet
  facet normal -0.20791 0.978148 0
    outer loop
      vertex -0.309016 0.951056 13
      vertex -0.104528 0.994521 8
      vertex -0.309016 0.951056 8
    endloop
  endfacet
  facet normal 0.20791 -0.978148 0
    outer loop
      vertex 0.104528 -0.994521 8
      vertex 0.309016 -0.951056 13
      vertex 0.104528 -0.994521 13
    endloop
  endfacet
  facet normal 0.20791 -0.978148 0
    outer loop
      vertex 0.309016 -0.951056 13
      vertex 0.104528 -0.994521 8
      vertex 0.309016 -0.951056 8
    endloop
  endfacet
  facet normal -0.866025 -0.500001 0
    outer loop
      vertex -0.809016 -0.587785 8
      vertex -0.913545 -0.406736 13
      vertex -0.913545 -0.406736 8
    endloop
  endfacet
  facet normal -0.866025 -0.500001 0
    outer loop
      vertex -0.913545 -0.406736 13
      vertex -0.809016 -0.587785 8
      vertex -0.809016 -0.587785 13
    endloop
  endfacet
  facet normal 0.406734 -0.913546 0
    outer loop
      vertex 0.309016 -0.951056 8
      vertex 0.5 -0.866025 13
      vertex 0.309016 -0.951056 13
    endloop
  endfacet
  facet normal 0.406734 -0.913546 0
    outer loop
      vertex 0.5 -0.866025 13
      vertex 0.309016 -0.951056 8
      vertex 0.5 -0.866025 8
    endloop
  endfacet
  facet normal -0.994522 0.104527 0
    outer loop
      vertex -1 0 8
      vertex -0.978148 0.207911 13
      vertex -0.978148 0.207911 8
    endloop
  endfacet
  facet normal -0.994522 0.104527 0
    outer loop
      vertex -0.978148 0.207911 13
      vertex -1 0 8
      vertex -1 0 13
    endloop
  endfacet
  facet normal 0.587788 0.809015 -0
    outer loop
      vertex 0.66913 0.743144 8
      vertex 0.5 0.866025 13
      vertex 0.66913 0.743144 13
    endloop
  endfacet
  facet normal 0.587788 0.809015 0
    outer loop
      vertex 0.5 0.866025 13
      vertex 0.66913 0.743144 8
      vertex 0.5 0.866025 8
    endloop
  endfacet
  facet normal 0.20791 0.978148 -0
    outer loop
      vertex 0.309016 0.951056 8
      vertex 0.104528 0.994521 13
      vertex 0.309016 0.951056 13
    endloop
  endfacet
  facet normal 0.20791 0.978148 0
    outer loop
      vertex 0.104528 0.994521 13
      vertex 0.309016 0.951056 8
      vertex 0.104528 0.994521 8
    endloop
  endfacet
  facet normal 0.743145 -0.669131 0
    outer loop
      vertex 0.66913 -0.743144 13
      vertex 0.809016 -0.587785 8
      vertex 0.809016 -0.587785 13
    endloop
  endfacet
  facet normal 0.743145 -0.669131 0
    outer loop
      vertex 0.809016 -0.587785 8
      vertex 0.66913 -0.743144 13
      vertex 0.66913 -0.743144 8
    endloop
  endfacet
  facet normal -0.994522 -0.104527 0
    outer loop
      vertex -0.978148 -0.207911 8
      vertex -1 0 13
      vertex -1 0 8
    endloop
  endfacet
  facet normal -0.994522 -0.104527 0
    outer loop
      vertex -1 0 13
      vertex -0.978148 -0.207911 8
      vertex -0.978148 -0.207911 13
    endloop
  endfacet
  facet normal 0 -1 0
    outer loop
      vertex -0.104528 -0.994521 8
      vertex 0.104528 -0.994521 13
      vertex -0.104528 -0.994521 13
    endloop
  endfacet
  facet normal 0 -1 -0
    outer loop
      vertex 0.104528 -0.994521 13
      vertex -0.104528 -0.994521 8
      vertex 0.104528 -0.994521 8
    endloop
  endfacet
  facet normal -0.951055 -0.309021 0
    outer loop
      vertex -0.913545 -0.406736 8
      vertex -0.978148 -0.207911 13
      vertex -0.978148 -0.207911 8
    endloop
  endfacet
  facet normal -0.951055 -0.309021 0
    outer loop
      vertex -0.978148 -0.207911 13
      vertex -0.913545 -0.406736 8
      vertex -0.913545 -0.406736 13
    endloop
  endfacet
  facet normal -0.587788 -0.809015 0
    outer loop
      vertex -0.66913 -0.743144 8
      vertex -0.5 -0.866025 13
      vertex -0.66913 -0.743144 13
    endloop
  endfacet
  facet normal -0.587788 -0.809015 -0
    outer loop
      vertex -0.5 -0.866025 13
      vertex -0.66913 -0.743144 8
      vertex -0.5 -0.866025 8
    endloop
  endfacet
  facet normal -0.743145 -0.669131 0
    outer loop
      vertex -0.66913 -0.743144 8
      vertex -0.809016 -0.587785 13
      vertex -0.809016 -0.587785 8
    endloop
  endfacet
  facet normal -0.743145 -0.669131 0
    outer loop
      vertex -0.809016 -0.587785 13
      vertex -0.66913 -0.743144 8
      vertex -0.66913 -0.743144 13
    endloop
  endfacet
  facet normal -0.406734 -0.913546 0
    outer loop
      vertex -0.5 -0.866025 8
      vertex -0.309016 -0.951056 13
      vertex -0.5 -0.866025 13
    endloop
  endfacet
  facet normal -0.406734 -0.913546 -0
    outer loop
      vertex -0.309016 -0.951056 13
      vertex -0.5 -0.866025 8
      vertex -0.309016 -0.951056 8
    endloop
  endfacet
endsolid OpenSCAD_Model
