solid OpenSCAD_Model
  facet normal 1 -0 0
    outer loop
      vertex 7 -5.6 7
      vertex 7 5.6 -7
      vertex 7 5.6 7
    endloop
  endfacet
  facet normal 1 0 0
    outer loop
      vertex 7 5.6 -7
      vertex 7 -5.6 7
      vertex 7 -5.6 -7
    endloop
  endfacet
  facet normal -0 0 1
    outer loop
      vertex -7 5.6 7
      vertex 7 -5.6 7
      vertex 7 5.6 7
    endloop
  endfacet
  facet normal 0 0 1
    outer loop
      vertex 7 -5.6 7
      vertex -7 5.6 7
      vertex -7 -5.6 7
    endloop
  endfacet
  facet normal 0 0 -1
    outer loop
      vertex -7 -5.6 -7
      vertex 7 5.6 -7
      vertex 7 -5.6 -7
    endloop
  endfacet
  facet normal -0 0 -1
    outer loop
      vertex 7 5.6 -7
      vertex -7 -5.6 -7
      vertex -7 5.6 -7
    endloop
  endfacet
  facet normal -1 0 0
    outer loop
      vertex -7 -5.6 -7
      vertex -7 5.6 7
      vertex -7 5.6 -7
    endloop
  endfacet
  facet normal -1 -0 0
    outer loop
      vertex -7 5.6 7
      vertex -7 -5.6 -7
      vertex -7 -5.6 7
    endloop
  endfacet
  facet normal 0 1 -0
    outer loop
      vertex 7 5.6 -7
      vertex -7 5.6 7
      vertex 7 5.6 7
    endloop
  endfacet
  facet normal 0 1 0
    outer loop
      vertex -7 5.6 7
      vertex 7 5.6 -7
      vertex -7 5.6 -7
    endloop
  endfacet
  facet normal 0 -1 0
    outer loop
      vertex -7 -5.6 7
      vertex -0.487799 -5.6 4.6411
      vertex 7 -5.6 7
    endloop
  endfacet
  facet normal 0 -1 0
    outer loop
      vertex -7 -5.6 7
      vertex -1.44208 -5.6 4.43826
      vertex -0.487799 -5.6 4.6411
    endloop
  endfacet
  facet normal 0 -1 0
    outer loop
      vertex -7 -5.6 7
      vertex -2.33333 -5.6 4.04145
      vertex -1.44208 -5.6 4.43826
    endloop
  endfacet
  facet normal 0 -1 0
    outer loop
      vertex -7 -5.6 7
      vertex -3.12261 -5.6 3.46801
      vertex -2.33333 -5.6 4.04145
    endloop
  endfacet
  facet normal 0 -1 0
    outer loop
      vertex -7 -5.6 7
      vertex -3.77541 -5.6 2.743
      vertex -3.12261 -5.6 3.46801
    endloop
  endfacet
  facet normal 0 -1 0
    outer loop
      vertex -7 -5.6 7
      vertex -4.26321 -5.6 1.8981
      vertex -3.77541 -5.6 2.743
    endloop
  endfacet
  facet normal 0 -1 0
    outer loop
      vertex -7 -5.6 7
      vertex -4.56469 -5.6 0.970254
      vertex -4.26321 -5.6 1.8981
    endloop
  endfacet
  facet normal 0 -1 0
    outer loop
      vertex -7 -5.6 7
      vertex -4.66667 -5.6 0
      vertex -4.56469 -5.6 0.970254
    endloop
  endfacet
  facet normal 0 -1 0
    outer loop
      vertex -7 -5.6 -7
      vertex -4.66667 -5.6 0
      vertex -7 -5.6 7
    endloop
  endfacet
  facet normal 0 -1 -0
    outer loop
      vertex -0.487799 -5.6 -4.6411
      vertex -7 -5.6 -7
      vertex 0.487799 -5.6 -4.6411
    endloop
  endfacet
  facet normal 0 -1 -0
    outer loop
      vertex -1.44208 -5.6 -4.43826
      vertex -7 -5.6 -7
      vertex -0.487799 -5.6 -4.6411
    endloop
  endfacet
  facet normal 0 -1 -0
    outer loop
      vertex -2.33333 -5.6 -4.04145
      vertex -7 -5.6 -7
      vertex -1.44208 -5.6 -4.43826
    endloop
  endfacet
  facet normal 0 -1 -0
    outer loop
      vertex -3.12261 -5.6 -3.46801
      vertex -7 -5.6 -7
      vertex -2.33333 -5.6 -4.04145
    endloop
  endfacet
  facet normal 0 -1 -0
    outer loop
      vertex -3.77541 -5.6 -2.743
      vertex -7 -5.6 -7
      vertex -3.12261 -5.6 -3.46801
    endloop
  endfacet
  facet normal 0 -1 -0
    outer loop
      vertex -4.26321 -5.6 -1.8981
      vertex -7 -5.6 -7
      vertex -3.77541 -5.6 -2.743
    endloop
  endfacet
  facet normal 0 -1 -0
    outer loop
      vertex -4.56469 -5.6 -0.970254
      vertex -7 -5.6 -7
      vertex -4.26321 -5.6 -1.8981
    endloop
  endfacet
  facet normal 0 -1 -0
    outer loop
      vertex -4.66667 -5.6 0
      vertex -7 -5.6 -7
      vertex -4.56469 -5.6 -0.970254
    endloop
  endfacet
  facet normal 0 -1 0
    outer loop
      vertex 0.487799 -5.6 4.6411
      vertex 7 -5.6 7
      vertex -0.487799 -5.6 4.6411
    endloop
  endfacet
  facet normal 0 -1 0
    outer loop
      vertex 1.44208 -5.6 4.43826
      vertex 7 -5.6 7
      vertex 0.487799 -5.6 4.6411
    endloop
  endfacet
  facet normal 0 -1 0
    outer loop
      vertex 2.33333 -5.6 4.04145
      vertex 7 -5.6 7
      vertex 1.44208 -5.6 4.43826
    endloop
  endfacet
  facet normal 0 -1 0
    outer loop
      vertex 3.12261 -5.6 3.46801
      vertex 7 -5.6 7
      vertex 2.33333 -5.6 4.04145
    endloop
  endfacet
  facet normal 0 -1 0
    outer loop
      vertex 3.77541 -5.6 2.743
      vertex 7 -5.6 7
      vertex 3.12261 -5.6 3.46801
    endloop
  endfacet
  facet normal 0 -1 0
    outer loop
      vertex 4.26321 -5.6 1.8981
      vertex 7 -5.6 7
      vertex 3.77541 -5.6 2.743
    endloop
  endfacet
  facet normal 0 -1 0
    outer loop
      vertex 4.56469 -5.6 0.970254
      vertex 7 -5.6 7
      vertex 4.26321 -5.6 1.8981
    endloop
  endfacet
  facet normal 0 -1 0
    outer loop
      vertex 4.66667 -5.6 0
      vertex 7 -5.6 7
      vertex 4.56469 -5.6 0.970254
    endloop
  endfacet
  facet normal 0 -1 0
    outer loop
      vertex 7 -5.6 -7
      vertex 4.66667 -5.6 0
      vertex 4.56469 -5.6 -0.970254
    endloop
  endfacet
  facet normal 0 -1 0
    outer loop
      vertex 7 -5.6 -7
      vertex 0.487799 -5.6 -4.6411
      vertex -7 -5.6 -7
    endloop
  endfacet
  facet normal 0 -1 0
    outer loop
      vertex 4.66667 -5.6 0
      vertex 7 -5.6 -7
      vertex 7 -5.6 7
    endloop
  endfacet
  facet normal 0 -1 0
    outer loop
      vertex 4.26321 -5.6 -1.8981
      vertex 7 -5.6 -7
      vertex 4.56469 -5.6 -0.970254
    endloop
  endfacet
  facet normal 0 -1 0
    outer loop
      vertex 3.77541 -5.6 -2.743
      vertex 7 -5.6 -7
      vertex 4.26321 -5.6 -1.8981
    endloop
  endfacet
  facet normal 0 -1 0
    outer loop
      vertex 3.12261 -5.6 -3.46801
      vertex 7 -5.6 -7
      vertex 3.77541 -5.6 -2.743
    endloop
  endfacet
  facet normal 0 -1 0
    outer loop
      vertex 2.33333 -5.6 -4.04145
      vertex 7 -5.6 -7
      vertex 3.12261 -5.6 -3.46801
    endloop
  endfacet
  facet normal 0 -1 0
    outer loop
      vertex 1.44208 -5.6 -4.43826
      vertex 7 -5.6 -7
      vertex 2.33333 -5.6 -4.04145
    endloop
  endfacet
  facet normal 0 -1 0
    outer loop
      vertex 0.487799 -5.6 -4.6411
      vertex 7 -5.6 -7
      vertex 1.44208 -5.6 -4.43826
    endloop
  endfacet
  facet normal -0.406737 0 0.913545
    outer loop
      vertex -2.33333 -5.6 4.04145
      vertex -1.44208 -10.6 4.43826
      vertex -1.44208 -5.6 4.43826
    endloop
  endfacet
  facet normal -0.406737 0 0.913545
    outer loop
      vertex -1.44208 -10.6 4.43826
      vertex -2.33333 -5.6 4.04145
      vertex -2.33333 -10.6 4.04145
    endloop
  endfacet
  facet normal -0.994522 0 0.104531
    outer loop
      vertex -4.66667 -10.6 0
      vertex -4.56469 -5.6 0.970254
      vertex -4.66667 -5.6 0
    endloop
  endfacet
  facet normal -0.994522 0 0.104531
    outer loop
      vertex -4.56469 -5.6 0.970254
      vertex -4.66667 -10.6 0
      vertex -4.56469 -10.6 0.970254
    endloop
  endfacet
  facet normal 0.406737 0 0.913545
    outer loop
      vertex 1.44208 -5.6 4.43826
      vertex 2.33333 -10.6 4.04145
      vertex 2.33333 -5.6 4.04145
    endloop
  endfacet
  facet normal 0.406737 0 0.913545
    outer loop
      vertex 2.33333 -10.6 4.04145
      vertex 1.44208 -5.6 4.43826
      vertex 1.44208 -10.6 4.43826
    endloop
  endfacet
  facet normal -0 0 1
    outer loop
      vertex -0.487799 -5.6 4.6411
      vertex 0.487799 -10.6 4.6411
      vertex 0.487799 -5.6 4.6411
    endloop
  endfacet
  facet normal 0 0 1
    outer loop
      vertex 0.487799 -10.6 4.6411
      vertex -0.487799 -5.6 4.6411
      vertex -0.487799 -10.6 4.6411
    endloop
  endfacet
  facet normal 0.743146 0 -0.66913
    outer loop
      vertex 3.77541 -10.6 -2.743
      vertex 3.12261 -5.6 -3.46801
      vertex 3.77541 -5.6 -2.743
    endloop
  endfacet
  facet normal 0.743146 0 -0.66913
    outer loop
      vertex 3.12261 -5.6 -3.46801
      vertex 3.77541 -10.6 -2.743
      vertex 3.12261 -10.6 -3.46801
    endloop
  endfacet
  facet normal 0.207913 0 0.978147
    outer loop
      vertex 0.487799 -5.6 4.6411
      vertex 1.44208 -10.6 4.43826
      vertex 1.44208 -5.6 4.43826
    endloop
  endfacet
  facet normal 0.207913 0 0.978147
    outer loop
      vertex 1.44208 -10.6 4.43826
      vertex 0.487799 -5.6 4.6411
      vertex 0.487799 -10.6 4.6411
    endloop
  endfacet
  facet normal 0.866027 -0 0.499998
    outer loop
      vertex 3.77541 -10.6 2.743
      vertex 4.26321 -5.6 1.8981
      vertex 3.77541 -5.6 2.743
    endloop
  endfacet
  facet normal 0.866027 0 0.499998
    outer loop
      vertex 4.26321 -5.6 1.8981
      vertex 3.77541 -10.6 2.743
      vertex 4.26321 -10.6 1.8981
    endloop
  endfacet
  facet normal 0.994522 -0 0.104531
    outer loop
      vertex 4.56469 -10.6 0.970254
      vertex 4.66667 -5.6 0
      vertex 4.56469 -5.6 0.970254
    endloop
  endfacet
  facet normal 0.994522 0 0.104531
    outer loop
      vertex 4.66667 -5.6 0
      vertex 4.56469 -10.6 0.970254
      vertex 4.66667 -10.6 0
    endloop
  endfacet
  facet normal 0.743146 -0 0.66913
    outer loop
      vertex 3.12261 -10.6 3.46801
      vertex 3.77541 -5.6 2.743
      vertex 3.12261 -5.6 3.46801
    endloop
  endfacet
  facet normal 0.743146 0 0.66913
    outer loop
      vertex 3.77541 -5.6 2.743
      vertex 3.12261 -10.6 3.46801
      vertex 3.77541 -10.6 2.743
    endloop
  endfacet
  facet normal 0.587782 0 0.80902
    outer loop
      vertex 2.33333 -5.6 4.04145
      vertex 3.12261 -10.6 3.46801
      vertex 3.12261 -5.6 3.46801
    endloop
  endfacet
  facet normal 0.587782 0 0.80902
    outer loop
      vertex 3.12261 -10.6 3.46801
      vertex 2.33333 -5.6 4.04145
      vertex 2.33333 -10.6 4.04145
    endloop
  endfacet
  facet normal -0.743146 0 0.66913
    outer loop
      vertex -3.77541 -10.6 2.743
      vertex -3.12261 -5.6 3.46801
      vertex -3.77541 -5.6 2.743
    endloop
  endfacet
  facet normal -0.743146 0 0.66913
    outer loop
      vertex -3.12261 -5.6 3.46801
      vertex -3.77541 -10.6 2.743
      vertex -3.12261 -10.6 3.46801
    endloop
  endfacet
  facet normal 0.951055 -0 0.309021
    outer loop
      vertex 4.26321 -10.6 1.8981
      vertex 4.56469 -5.6 0.970254
      vertex 4.26321 -5.6 1.8981
    endloop
  endfacet
  facet normal 0.951055 0 0.309021
    outer loop
      vertex 4.56469 -5.6 0.970254
      vertex 4.26321 -10.6 1.8981
      vertex 4.56469 -10.6 0.970254
    endloop
  endfacet
  facet normal 0.994522 0 -0.104531
    outer loop
      vertex 4.66667 -10.6 0
      vertex 4.56469 -5.6 -0.970254
      vertex 4.66667 -5.6 0
    endloop
  endfacet
  facet normal 0.994522 0 -0.104531
    outer loop
      vertex 4.56469 -5.6 -0.970254
      vertex 4.66667 -10.6 0
      vertex 4.56469 -10.6 -0.970254
    endloop
  endfacet
  facet normal 0.951055 0 -0.309021
    outer loop
      vertex 4.56469 -10.6 -0.970254
      vertex 4.26321 -5.6 -1.8981
      vertex 4.56469 -5.6 -0.970254
    endloop
  endfacet
  facet normal 0.951055 0 -0.309021
    outer loop
      vertex 4.26321 -5.6 -1.8981
      vertex 4.56469 -10.6 -0.970254
      vertex 4.26321 -10.6 -1.8981
    endloop
  endfacet
  facet normal 0 0 -1
    outer loop
      vertex -0.487799 -10.6 -4.6411
      vertex 0.487799 -5.6 -4.6411
      vertex 0.487799 -10.6 -4.6411
    endloop
  endfacet
  facet normal -0 0 -1
    outer loop
      vertex 0.487799 -5.6 -4.6411
      vertex -0.487799 -10.6 -4.6411
      vertex -0.487799 -5.6 -4.6411
    endloop
  endfacet
  facet normal -0.587782 0 0.80902
    outer loop
      vertex -3.12261 -5.6 3.46801
      vertex -2.33333 -10.6 4.04145
      vertex -2.33333 -5.6 4.04145
    endloop
  endfacet
  facet normal -0.587782 0 0.80902
    outer loop
      vertex -2.33333 -10.6 4.04145
      vertex -3.12261 -5.6 3.46801
      vertex -3.12261 -10.6 3.46801
    endloop
  endfacet
  facet normal -0.406737 0 -0.913545
    outer loop
      vertex -2.33333 -10.6 -4.04145
      vertex -1.44208 -5.6 -4.43826
      vertex -1.44208 -10.6 -4.43826
    endloop
  endfacet
  facet normal -0.406737 0 -0.913545
    outer loop
      vertex -1.44208 -5.6 -4.43826
      vertex -2.33333 -10.6 -4.04145
      vertex -2.33333 -5.6 -4.04145
    endloop
  endfacet
  facet normal -0.951055 0 0.309021
    outer loop
      vertex -4.56469 -10.6 0.970254
      vertex -4.26321 -5.6 1.8981
      vertex -4.56469 -5.6 0.970254
    endloop
  endfacet
  facet normal -0.951055 0 0.309021
    outer loop
      vertex -4.26321 -5.6 1.8981
      vertex -4.56469 -10.6 0.970254
      vertex -4.26321 -10.6 1.8981
    endloop
  endfacet
  facet normal -0.207913 0 -0.978147
    outer loop
      vertex -1.44208 -10.6 -4.43826
      vertex -0.487799 -5.6 -4.6411
      vertex -0.487799 -10.6 -4.6411
    endloop
  endfacet
  facet normal -0.207913 0 -0.978147
    outer loop
      vertex -0.487799 -5.6 -4.6411
      vertex -1.44208 -10.6 -4.43826
      vertex -1.44208 -5.6 -4.43826
    endloop
  endfacet
  facet normal 0.587782 0 -0.80902
    outer loop
      vertex 2.33333 -10.6 -4.04145
      vertex 3.12261 -5.6 -3.46801
      vertex 3.12261 -10.6 -3.46801
    endloop
  endfacet
  facet normal 0.587782 0 -0.80902
    outer loop
      vertex 3.12261 -5.6 -3.46801
      vertex 2.33333 -10.6 -4.04145
      vertex 2.33333 -5.6 -4.04145
    endloop
  endfacet
  facet normal -0.587782 0 -0.80902
    outer loop
      vertex -3.12261 -10.6 -3.46801
      vertex -2.33333 -5.6 -4.04145
      vertex -2.33333 -10.6 -4.04145
    endloop
  endfacet
  facet normal -0.587782 0 -0.80902
    outer loop
      vertex -2.33333 -5.6 -4.04145
      vertex -3.12261 -10.6 -3.46801
      vertex -3.12261 -5.6 -3.46801
    endloop
  endfacet
  facet normal 0 -1 0
    outer loop
      vertex -1.44208 -10.6 4.43826
      vertex 0.487799 -10.6 4.6411
      vertex -0.487799 -10.6 4.6411
    endloop
  endfacet
  facet normal 0 -1 0
    outer loop
      vertex -1.44208 -10.6 4.43826
      vertex 1.44208 -10.6 4.43826
      vertex 0.487799 -10.6 4.6411
    endloop
  endfacet
  facet normal 0 -1 0
    outer loop
      vertex -2.33333 -10.6 4.04145
      vertex 1.44208 -10.6 4.43826
      vertex -1.44208 -10.6 4.43826
    endloop
  endfacet
  facet normal 0 -1 0
    outer loop
      vertex -2.33333 -10.6 4.04145
      vertex 2.33333 -10.6 4.04145
      vertex 1.44208 -10.6 4.43826
    endloop
  endfacet
  facet normal 0 -1 0
    outer loop
      vertex -3.12261 -10.6 3.46801
      vertex 2.33333 -10.6 4.04145
      vertex -2.33333 -10.6 4.04145
    endloop
  endfacet
  facet normal 0 -1 0
    outer loop
      vertex -3.12261 -10.6 3.46801
      vertex 3.12261 -10.6 3.46801
      vertex 2.33333 -10.6 4.04145
    endloop
  endfacet
  facet normal 0 -1 0
    outer loop
      vertex -3.77541 -10.6 2.743
      vertex 3.12261 -10.6 3.46801
      vertex -3.12261 -10.6 3.46801
    endloop
  endfacet
  facet normal 0 -1 0
    outer loop
      vertex -3.77541 -10.6 2.743
      vertex 3.77541 -10.6 2.743
      vertex 3.12261 -10.6 3.46801
    endloop
  endfacet
  facet normal 0 -1 0
    outer loop
      vertex -4.26321 -10.6 1.8981
      vertex 3.77541 -10.6 2.743
      vertex -3.77541 -10.6 2.743
    endloop
  endfacet
  facet normal 0 -1 0
    outer loop
      vertex -4.26321 -10.6 1.8981
      vertex 4.26321 -10.6 1.8981
      vertex 3.77541 -10.6 2.743
    endloop
  endfacet
  facet normal 0 -1 0
    outer loop
      vertex -4.56469 -10.6 0.970254
      vertex 4.26321 -10.6 1.8981
      vertex -4.26321 -10.6 1.8981
    endloop
  endfacet
  facet normal 0 -1 0
    outer loop
      vertex -4.56469 -10.6 0.970254
      vertex 4.56469 -10.6 0.970254
      vertex 4.26321 -10.6 1.8981
    endloop
  endfacet
  facet normal 0 -1 0
    outer loop
      vertex -4.66667 -10.6 0
      vertex 4.56469 -10.6 0.970254
      vertex -4.56469 -10.6 0.970254
    endloop
  endfacet
  facet normal 0 -1 0
    outer loop
      vertex -4.66667 -10.6 0
      vertex 4.66667 -10.6 0
      vertex 4.56469 -10.6 0.970254
    endloop
  endfacet
  facet normal 0 -1 0
    outer loop
      vertex -4.56469 -10.6 -0.970254
      vertex 4.66667 -10.6 0
      vertex -4.66667 -10.6 0
    endloop
  endfacet
  facet normal 0 -1 0
    outer loop
      vertex -4.56469 -10.6 -0.970254
      vertex 4.56469 -10.6 -0.970254
      vertex 4.66667 -10.6 0
    endloop
  endfacet
  facet normal 0 -1 0
    outer loop
      vertex -4.26321 -10.6 -1.8981
      vertex 4.56469 -10.6 -0.970254
      vertex -4.56469 -10.6 -0.970254
    endloop
  endfacet
  facet normal 0 -1 0
    outer loop
      vertex -4.26321 -10.6 -1.8981
      vertex 4.26321 -10.6 -1.8981
      vertex 4.56469 -10.6 -0.970254
    endloop
  endfacet
  facet normal 0 -1 0
    outer loop
      vertex -3.77541 -10.6 -2.743
      vertex 4.26321 -10.6 -1.8981
      vertex -4.26321 -10.6 -1.8981
    endloop
  endfacet
  facet normal 0 -1 0
    outer loop
      vertex -3.77541 -10.6 -2.743
      vertex 3.77541 -10.6 -2.743
      vertex 4.26321 -10.6 -1.8981
    endloop
  endfacet
  facet normal 0 -1 0
    outer loop
      vertex -3.12261 -10.6 -3.46801
      vertex 3.77541 -10.6 -2.743
      vertex -3.77541 -10.6 -2.743
    endloop
  endfacet
  facet normal 0 -1 0
    outer loop
      vertex -3.12261 -10.6 -3.46801
      vertex 3.12261 -10.6 -3.46801
      vertex 3.77541 -10.6 -2.743
    endloop
  endfacet
  facet normal 0 -1 0
    outer loop
      vertex -2.33333 -10.6 -4.04145
      vertex 3.12261 -10.6 -3.46801
      vertex -3.12261 -10.6 -3.46801
    endloop
  endfacet
  facet normal 0 -1 0
    outer loop
      vertex -2.33333 -10.6 -4.04145
      vertex 2.33333 -10.6 -4.04145
      vertex 3.12261 -10.6 -3.46801
    endloop
  endfacet
  facet normal 0 -1 0
    outer loop
      vertex -1.44208 -10.6 -4.43826
      vertex 2.33333 -10.6 -4.04145
      vertex -2.33333 -10.6 -4.04145
    endloop
  endfacet
  facet normal 0 -1 0
    outer loop
      vertex -1.44208 -10.6 -4.43826
      vertex 1.44208 -10.6 -4.43826
      vertex 2.33333 -10.6 -4.04145
    endloop
  endfacet
  facet normal 0 -1 0
    outer loop
      vertex -0.487799 -10.6 -4.6411
      vertex 1.44208 -10.6 -4.43826
      vertex -1.44208 -10.6 -4.43826
    endloop
  endfacet
  facet normal 0 -1 0
    outer loop
      vertex 1.44208 -10.6 -4.43826
      vertex -0.487799 -10.6 -4.6411
      vertex 0.487799 -10.6 -4.6411
    endloop
  endfacet
  facet normal -0.866027 0 -0.499998
    outer loop
      vertex -3.77541 -10.6 -2.743
      vertex -4.26321 -5.6 -1.8981
      vertex -3.77541 -5.6 -2.743
    endloop
  endfacet
  facet normal -0.866027 -0 -0.499998
    outer loop
      vertex -4.26321 -5.6 -1.8981
      vertex -3.77541 -10.6 -2.743
      vertex -4.26321 -10.6 -1.8981
    endloop
  endfacet
  facet normal -0.951055 0 -0.309021
    outer loop
      vertex -4.26321 -10.6 -1.8981
      vertex -4.56469 -5.6 -0.970254
      vertex -4.26321 -5.6 -1.8981
    endloop
  endfacet
  facet normal -0.951055 -0 -0.309021
    outer loop
      vertex -4.56469 -5.6 -0.970254
      vertex -4.26321 -10.6 -1.8981
      vertex -4.56469 -10.6 -0.970254
    endloop
  endfacet
  facet normal -0.207913 0 0.978147
    outer loop
      vertex -1.44208 -5.6 4.43826
      vertex -0.487799 -10.6 4.6411
      vertex -0.487799 -5.6 4.6411
    endloop
  endfacet
  facet normal -0.207913 0 0.978147
    outer loop
      vertex -0.487799 -10.6 4.6411
      vertex -1.44208 -5.6 4.43826
      vertex -1.44208 -10.6 4.43826
    endloop
  endfacet
  facet normal -0.743146 0 -0.66913
    outer loop
      vertex -3.12261 -10.6 -3.46801
      vertex -3.77541 -5.6 -2.743
      vertex -3.12261 -5.6 -3.46801
    endloop
  endfacet
  facet normal -0.743146 -0 -0.66913
    outer loop
      vertex -3.77541 -5.6 -2.743
      vertex -3.12261 -10.6 -3.46801
      vertex -3.77541 -10.6 -2.743
    endloop
  endfacet
  facet normal 0.866027 0 -0.499998
    outer loop
      vertex 4.26321 -10.6 -1.8981
      vertex 3.77541 -5.6 -2.743
      vertex 4.26321 -5.6 -1.8981
    endloop
  endfacet
  facet normal 0.866027 0 -0.499998
    outer loop
      vertex 3.77541 -5.6 -2.743
      vertex 4.26321 -10.6 -1.8981
      vertex 3.77541 -10.6 -2.743
    endloop
  endfacet
  facet normal 0.406737 0 -0.913545
    outer loop
      vertex 1.44208 -10.6 -4.43826
      vertex 2.33333 -5.6 -4.04145
      vertex 2.33333 -10.6 -4.04145
    endloop
  endfacet
  facet normal 0.406737 0 -0.913545
    outer loop
      vertex 2.33333 -5.6 -4.04145
      vertex 1.44208 -10.6 -4.43826
      vertex 1.44208 -5.6 -4.43826
    endloop
  endfacet
  facet normal 0.207913 0 -0.978147
    outer loop
      vertex 0.487799 -10.6 -4.6411
      vertex 1.44208 -5.6 -4.43826
      vertex 1.44208 -10.6 -4.43826
    endloop
  endfacet
  facet normal 0.207913 0 -0.978147
    outer loop
      vertex 1.44208 -5.6 -4.43826
      vertex 0.487799 -10.6 -4.6411
      vertex 0.487799 -5.6 -4.6411
    endloop
  endfacet
  facet normal -0.994522 0 -0.104531
    outer loop
      vertex -4.56469 -10.6 -0.970254
      vertex -4.66667 -5.6 0
      vertex -4.56469 -5.6 -0.970254
    endloop
  endfacet
  facet normal -0.994522 -0 -0.104531
    outer loop
      vertex -4.66667 -5.6 0
      vertex -4.56469 -10.6 -0.970254
      vertex -4.66667 -10.6 0
    endloop
  endfacet
  facet normal -0.866027 0 0.499998
    outer loop
      vertex -4.26321 -10.6 1.8981
      vertex -3.77541 -5.6 2.743
      vertex -4.26321 -5.6 1.8981
    endloop
  endfacet
  facet normal -0.866027 0 0.499998
    outer loop
      vertex -3.77541 -5.6 2.743
      vertex -4.26321 -10.6 1.8981
      vertex -3.77541 -10.6 2.743
    endloop
  endfacet
endsolid OpenSCAD_Model
