solid OpenSCAD_Model
  facet normal 1 -0 0
    outer loop
      vertex 6 -30 3.5
      vertex 6 30 -3.5
      vertex 6 30 3.5
    endloop
  endfacet
  facet normal 1 0 0
    outer loop
      vertex 6 30 -3.5
      vertex 6 -30 3.5
      vertex 6 -30 -3.5
    endloop
  endfacet
  facet normal -0 0 1
    outer loop
      vertex -6 30 3.5
      vertex 6 -30 3.5
      vertex 6 30 3.5
    endloop
  endfacet
  facet normal 0 0 1
    outer loop
      vertex 6 -30 3.5
      vertex -6 30 3.5
      vertex -6 -30 3.5
    endloop
  endfacet
  facet normal 0 0 -1
    outer loop
      vertex -6 -30 -3.5
      vertex 6 30 -3.5
      vertex 6 -30 -3.5
    endloop
  endfacet
  facet normal -0 0 -1
    outer loop
      vertex 6 30 -3.5
      vertex -6 -30 -3.5
      vertex -6 30 -3.5
    endloop
  endfacet
  facet normal -1 0 0
    outer loop
      vertex -6 -30 -3.5
      vertex -6 30 3.5
      vertex -6 30 -3.5
    endloop
  endfacet
  facet normal -1 -0 0
    outer loop
      vertex -6 30 3.5
      vertex -6 -30 -3.5
      vertex -6 -30 3.5
    endloop
  endfacet
  facet normal 0 1 0
    outer loop
      vertex 6 30 3.5
      vertex 1.5 30 1
      vertex -6 30 3.5
    endloop
  endfacet
  facet normal 0 1 0
    outer loop
      vertex 6 30 3.5
      vertex 1.5 30 -1
      vertex 1.5 30 1
    endloop
  endfacet
  facet normal 0 1 0
    outer loop
      vertex 1.5 30 -1
      vertex 6 30 -3.5
      vertex -1.5 30 -1
    endloop
  endfacet
  facet normal 0 1 -0
    outer loop
      vertex 6 30 -3.5
      vertex 1.5 30 -1
      vertex 6 30 3.5
    endloop
  endfacet
  facet normal 0 1 -0
    outer loop
      vertex -1.5 30 1
      vertex -6 30 3.5
      vertex 1.5 30 1
    endloop
  endfacet
  facet normal 0 1 -0
    outer loop
      vertex -1.5 30 -1
      vertex -6 30 3.5
      vertex -1.5 30 1
    endloop
  endfacet
  facet normal 0 1 0
    outer loop
      vertex -1.5 30 -1
      vertex -6 30 -3.5
      vertex -6 30 3.5
    endloop
  endfacet
  facet normal 0 1 0
    outer loop
      vertex -6 30 -3.5
      vertex -1.5 30 -1
      vertex 6 30 -3.5
    endloop
  endfacet
  facet normal 0 -1 0
    outer loop
      vertex -6 -30 -3.5
      vertex 6 -30 3.5
      vertex -6 -30 3.5
    endloop
  endfacet
  facet normal 0 -1 -0
    outer loop
      vertex 6 -30 3.5
      vertex -6 -30 -3.5
      vertex 6 -30 -3.5
    endloop
  endfacet
  facet normal 1 -0 0
    outer loop
      vertex 1.5 30 1
      vertex 1.5 32.5 -1
      vertex 1.5 32.5 1
    endloop
  endfacet
  facet normal 1 0 0
    outer loop
      vertex 1.5 32.5 -1
      vertex 1.5 30 1
      vertex 1.5 30 -1
    endloop
  endfacet
  facet normal -0 0 1
    outer loop
      vertex -1.5 32.5 1
      vertex 1.5 30 1
      vertex 1.5 32.5 1
    endloop
  endfacet
  facet normal 0 0 1
    outer loop
      vertex 1.5 30 1
      vertex -1.5 32.5 1
      vertex -1.5 30 1
    endloop
  endfacet
  facet normal 0 0 -1
    outer loop
      vertex -1.5 30 -1
      vertex 1.5 32.5 -1
      vertex 1.5 30 -1
    endloop
  endfacet
  facet normal -0 0 -1
    outer loop
      vertex 1.5 32.5 -1
      vertex -1.5 30 -1
      vertex -1.5 32.5 -1
    endloop
  endfacet
  facet normal -1 0 0
    outer loop
      vertex -1.5 30 -1
      vertex -1.5 32.5 1
      vertex -1.5 32.5 -1
    endloop
  endfacet
  facet normal -1 -0 0
    outer loop
      vertex -1.5 32.5 1
      vertex -1.5 30 -1
      vertex -1.5 30 1
    endloop
  endfacet
  facet normal 0 1 -0
    outer loop
      vertex 1.5 32.5 -1
      vertex -1.5 32.5 1
      vertex 1.5 32.5 1
    endloop
  endfacet
  facet normal 0 1 0
    outer loop
      vertex -1.5 32.5 1
      vertex 1.5 32.5 -1
      vertex -1.5 32.5 -1
    endloop
  endfacet
endsolid OpenSCAD_Model
